<svg width="169" height="44" viewBox="0 0 169 44" fill="none" xmlns="http://www.w3.org/2000/svg">
<g clip-path="url(#clip0_1117_56834)">
<path d="M1 9C1 4.58172 4.58172 1 9 1H160C164.418 1 168 4.58172 168 9V35C168 39.4183 164.418 43 160 43H9C4.58172 43 1 39.4183 1 35V9Z" fill="white"/>
<path d="M23.414 21.4629C23.4062 20.1309 24.0097 19.127 25.2285 18.3867C24.5468 17.4102 23.5156 16.873 22.1562 16.7695C20.8691 16.668 19.4609 17.5195 18.9453 17.5195C18.4004 17.5195 17.1543 16.8047 16.1738 16.8047C14.1504 16.8359 12 18.418 12 21.6367C12 22.5879 12.1738 23.5703 12.5215 24.582C12.9863 25.9141 14.6621 29.1777 16.4101 29.125C17.3242 29.1035 17.9707 28.4766 19.1601 28.4766C20.3144 28.4766 20.9121 29.125 21.9316 29.125C23.6953 29.0996 25.2109 26.1328 25.6523 24.7969C23.2871 23.6816 23.414 21.5312 23.414 21.4629ZM21.3613 15.5059C22.3515 14.3301 22.2617 13.2598 22.2324 12.875C21.3574 12.9258 20.3457 13.4707 19.7695 14.1406C19.1347 14.8594 18.7617 15.748 18.8418 16.75C19.7871 16.8223 20.6504 16.3359 21.3613 15.5059Z" fill="black"/>
<path d="M9 2H160V0H9V2ZM167 9V35H169V9H167ZM160 42H9V44H160V42ZM2 35V9H0V35H2ZM9 42C5.13401 42 2 38.866 2 35H0C0 39.9706 4.02944 44 9 44V42ZM167 35C167 38.866 163.866 42 160 42V44C164.971 44 169 39.9706 169 35H167ZM160 2C163.866 2 167 5.13401 167 9H169C169 4.02944 164.971 0 160 0V2ZM9 0C4.02944 0 0 4.02944 0 9H2C2 5.13401 5.13401 2 9 2V0Z" fill="black"/>
<path d="M36.7695 27.2461C37.5579 27.2461 38.2393 27.1185 38.8135 26.8633C39.3923 26.6081 39.8366 26.248 40.1465 25.7832C40.4609 25.3184 40.6182 24.7669 40.6182 24.1289V24.1221C40.6182 23.6208 40.5156 23.1924 40.3105 22.8369C40.11 22.4769 39.7933 22.1761 39.3604 21.9346C38.9274 21.693 38.3646 21.4993 37.6719 21.3535L36.6123 21.1279C35.9971 21.0003 35.5527 20.8226 35.2793 20.5947C35.0104 20.3669 34.876 20.0798 34.876 19.7334V19.7266C34.876 19.444 34.9557 19.2025 35.1152 19.002C35.2793 18.8014 35.5026 18.6465 35.7852 18.5371C36.0677 18.4232 36.389 18.3662 36.749 18.3662C37.1273 18.3662 37.4577 18.4232 37.7402 18.5371C38.0228 18.651 38.2484 18.806 38.417 19.002C38.5902 19.1934 38.6973 19.4189 38.7383 19.6787L38.752 19.7607H40.4336L40.4268 19.6719C40.3903 19.1432 40.2194 18.6693 39.9141 18.25C39.6087 17.8307 39.1895 17.5003 38.6562 17.2588C38.123 17.0127 37.4919 16.8896 36.7627 16.8896C36.0518 16.8896 35.4206 17.015 34.8691 17.2656C34.3223 17.5117 33.8916 17.8558 33.5771 18.2979C33.2673 18.7399 33.1123 19.2549 33.1123 19.8428V19.8496C33.1123 20.5833 33.3402 21.1872 33.7959 21.6611C34.2562 22.1305 34.9922 22.4723 36.0039 22.6865L37.0635 22.9053C37.7015 23.042 38.1595 23.2243 38.4375 23.4521C38.7155 23.6755 38.8545 23.9648 38.8545 24.3203V24.3271C38.8545 24.6097 38.7679 24.8604 38.5947 25.0791C38.4215 25.2933 38.1823 25.4619 37.877 25.585C37.5716 25.708 37.2207 25.7695 36.8242 25.7695C36.4095 25.7695 36.0404 25.7126 35.7168 25.5986C35.3932 25.4801 35.1335 25.3184 34.9375 25.1133C34.7461 24.9082 34.6367 24.6667 34.6094 24.3887L34.6025 24.3203H32.8936L32.9004 24.416C32.9414 24.9811 33.1237 25.4756 33.4473 25.8994C33.7708 26.3232 34.2129 26.6536 34.7734 26.8906C35.3385 27.1276 36.0039 27.2461 36.7695 27.2461ZM42.4434 27H44.1387V19.5283H42.4434V27ZM43.2979 18.2773C43.5758 18.2773 43.8128 18.1794 44.0088 17.9834C44.2093 17.7874 44.3096 17.5527 44.3096 17.2793C44.3096 16.9967 44.2093 16.7598 44.0088 16.5684C43.8128 16.3724 43.5758 16.2744 43.2979 16.2744C43.0199 16.2744 42.7806 16.3724 42.5801 16.5684C42.3796 16.7598 42.2793 16.9967 42.2793 17.2793C42.2793 17.5527 42.3796 17.7874 42.5801 17.9834C42.7806 18.1794 43.0199 18.2773 43.2979 18.2773ZM49.4502 29.625C50.1794 29.625 50.8105 29.5111 51.3438 29.2832C51.877 29.0553 52.2871 28.7295 52.5742 28.3057C52.8659 27.8864 53.0117 27.3896 53.0117 26.8154V19.5283H51.3096V20.7588H51.2207C51.0794 20.4762 50.8971 20.2347 50.6738 20.0342C50.4551 19.8337 50.1999 19.6787 49.9082 19.5693C49.6211 19.46 49.3044 19.4053 48.958 19.4053C48.3154 19.4053 47.7617 19.5602 47.2969 19.8701C46.8366 20.18 46.4811 20.6084 46.2305 21.1553C45.9798 21.7021 45.8545 22.3356 45.8545 23.0557V23.0693C45.8545 23.7757 45.9775 24.3978 46.2236 24.9355C46.4743 25.4733 46.8298 25.8949 47.29 26.2002C47.7503 26.501 48.2949 26.6514 48.9238 26.6514C49.2702 26.6514 49.5869 26.6058 49.874 26.5146C50.1657 26.4189 50.4232 26.2777 50.6465 26.0908C50.8743 25.904 51.0589 25.6761 51.2002 25.4072H51.3164V26.8428C51.3164 27.3213 51.1546 27.6904 50.8311 27.9502C50.512 28.21 50.0609 28.3398 49.4775 28.3398C49.0036 28.3398 48.6253 28.2624 48.3428 28.1074C48.0648 27.957 47.8984 27.7633 47.8438 27.5264L47.8301 27.5059H46.1348L46.1279 27.5264C46.1872 27.9456 46.3535 28.3125 46.627 28.627C46.9004 28.946 47.2741 29.1921 47.748 29.3652C48.2266 29.5384 48.7939 29.625 49.4502 29.625ZM49.4502 25.2979C49.0537 25.2979 48.7165 25.2044 48.4385 25.0176C48.165 24.8262 47.9554 24.5641 47.8096 24.2314C47.6683 23.8942 47.5977 23.5068 47.5977 23.0693V23.0557C47.5977 22.6136 47.6683 22.2262 47.8096 21.8936C47.9554 21.5563 48.165 21.2943 48.4385 21.1074C48.7165 20.916 49.0537 20.8203 49.4502 20.8203C49.8421 20.8203 50.1794 20.916 50.4619 21.1074C50.7445 21.2943 50.9609 21.5563 51.1113 21.8936C51.2663 22.2262 51.3438 22.6136 51.3438 23.0557V23.0693C51.3438 23.5114 51.2663 23.8988 51.1113 24.2314C50.9609 24.5641 50.7445 24.8262 50.4619 25.0176C50.1794 25.2044 49.8421 25.2979 49.4502 25.2979ZM55.0967 27H56.7988V22.6455C56.7988 22.2718 56.8649 21.9482 56.9971 21.6748C57.1292 21.4014 57.3184 21.1895 57.5645 21.0391C57.8105 20.8887 58.1022 20.8135 58.4395 20.8135C58.9544 20.8135 59.3327 20.9593 59.5742 21.251C59.8203 21.5426 59.9434 21.9801 59.9434 22.5635V27H61.6455V22.167C61.6455 21.2783 61.4245 20.5924 60.9824 20.1094C60.5404 19.6263 59.9023 19.3848 59.0684 19.3848C58.5306 19.3848 58.0817 19.4987 57.7217 19.7266C57.3617 19.9544 57.0928 20.2712 56.915 20.6768H56.7988V19.5283H55.0967V27ZM67.4082 27H69.1035V19.5283H67.4082V27ZM68.2627 18.2773C68.5407 18.2773 68.7777 18.1794 68.9736 17.9834C69.1742 17.7874 69.2744 17.5527 69.2744 17.2793C69.2744 16.9967 69.1742 16.7598 68.9736 16.5684C68.7777 16.3724 68.5407 16.2744 68.2627 16.2744C67.9847 16.2744 67.7454 16.3724 67.5449 16.5684C67.3444 16.7598 67.2441 16.9967 67.2441 17.2793C67.2441 17.5527 67.3444 17.7874 67.5449 17.9834C67.7454 18.1794 67.9847 18.2773 68.2627 18.2773ZM71.2021 27H72.9043V22.6455C72.9043 22.2718 72.9704 21.9482 73.1025 21.6748C73.2347 21.4014 73.4238 21.1895 73.6699 21.0391C73.916 20.8887 74.2077 20.8135 74.5449 20.8135C75.0599 20.8135 75.4382 20.9593 75.6797 21.251C75.9258 21.5426 76.0488 21.9801 76.0488 22.5635V27H77.751V22.167C77.751 21.2783 77.5299 20.5924 77.0879 20.1094C76.6458 19.6263 76.0078 19.3848 75.1738 19.3848C74.6361 19.3848 74.1872 19.4987 73.8271 19.7266C73.4671 19.9544 73.1982 20.2712 73.0205 20.6768H72.9043V19.5283H71.2021V27ZM84.9219 27H86.6787L88.1279 21.5859H88.2441L89.7002 27H91.4775L93.5078 19.5283H91.8193L90.582 25.1475H90.459L89.0166 19.5283H87.3965L85.9609 25.1475H85.8379L84.6006 19.5283H82.8916L84.9219 27ZM94.998 27H96.6934V19.5283H94.998V27ZM95.8525 18.2773C96.1305 18.2773 96.3675 18.1794 96.5635 17.9834C96.764 17.7874 96.8643 17.5527 96.8643 17.2793C96.8643 16.9967 96.764 16.7598 96.5635 16.5684C96.3675 16.3724 96.1305 16.2744 95.8525 16.2744C95.5745 16.2744 95.3353 16.3724 95.1348 16.5684C94.9342 16.7598 94.834 16.9967 94.834 17.2793C94.834 17.5527 94.9342 17.7874 95.1348 17.9834C95.3353 18.1794 95.5745 18.2773 95.8525 18.2773ZM101.731 27.0342C101.896 27.0342 102.053 27.0273 102.203 27.0137C102.358 27 102.495 26.9818 102.613 26.959V25.6465C102.513 25.6556 102.422 25.6647 102.34 25.6738C102.262 25.6784 102.162 25.6807 102.039 25.6807C101.688 25.6807 101.433 25.5964 101.273 25.4277C101.118 25.2546 101.041 24.9834 101.041 24.6143V20.8477H102.613V19.5283H101.041V17.6963H99.3115V19.5283H98.1494V20.8477H99.3115V25.0176C99.3115 25.7331 99.5007 26.248 99.8789 26.5625C100.257 26.877 100.875 27.0342 101.731 27.0342ZM104.384 27H106.086V22.6455C106.086 22.2718 106.152 21.9482 106.284 21.6748C106.416 21.4014 106.605 21.1895 106.852 21.0391C107.098 20.8887 107.389 20.8135 107.727 20.8135C108.242 20.8135 108.62 20.9593 108.861 21.251C109.107 21.5426 109.23 21.9801 109.23 22.5635V27H110.933V22.167C110.933 21.5745 110.832 21.071 110.632 20.6562C110.436 20.2415 110.146 19.9271 109.764 19.7129C109.381 19.4941 108.911 19.3848 108.355 19.3848C107.818 19.3848 107.369 19.4987 107.009 19.7266C106.649 19.9544 106.38 20.2712 106.202 20.6768H106.086V16.6367H104.384V27ZM116.121 27H117.967L120.558 18.9678H121.084V17.1357H119.621L116.121 27ZM117.885 24.4502H123.326L122.868 23.0898H118.343L117.885 24.4502ZM123.265 27H125.11L121.604 17.1357H120.674V18.9678L123.265 27ZM126.628 29.4814H128.33V25.8105H128.446C128.578 26.0794 128.756 26.3118 128.979 26.5078C129.203 26.7038 129.463 26.8564 129.759 26.9658C130.055 27.0706 130.374 27.123 130.716 27.123C131.345 27.123 131.887 26.9681 132.343 26.6582C132.803 26.3438 133.159 25.8994 133.409 25.3252C133.66 24.751 133.785 24.0674 133.785 23.2744V23.2607C133.785 22.4723 133.658 21.791 133.402 21.2168C133.152 20.638 132.796 20.1914 132.336 19.877C131.88 19.5625 131.34 19.4053 130.716 19.4053C130.365 19.4053 130.044 19.4577 129.752 19.5625C129.46 19.6673 129.203 19.8154 128.979 20.0068C128.761 20.1982 128.583 20.4284 128.446 20.6973H128.33V19.5283H126.628V29.4814ZM130.183 25.6875C129.8 25.6875 129.467 25.5918 129.185 25.4004C128.902 25.2044 128.683 24.9264 128.528 24.5664C128.378 24.2018 128.303 23.7689 128.303 23.2676V23.2539C128.303 22.7526 128.378 22.3219 128.528 21.9619C128.683 21.6019 128.9 21.3262 129.178 21.1348C129.46 20.9388 129.795 20.8408 130.183 20.8408C130.57 20.8408 130.903 20.9388 131.181 21.1348C131.459 21.3262 131.673 21.6019 131.823 21.9619C131.974 22.3219 132.049 22.7549 132.049 23.2607V23.2744C132.049 23.7712 131.974 24.2018 131.823 24.5664C131.673 24.9264 131.459 25.2044 131.181 25.4004C130.903 25.5918 130.57 25.6875 130.183 25.6875ZM135.501 29.4814H137.203V25.8105H137.319C137.451 26.0794 137.629 26.3118 137.853 26.5078C138.076 26.7038 138.336 26.8564 138.632 26.9658C138.928 27.0706 139.247 27.123 139.589 27.123C140.218 27.123 140.76 26.9681 141.216 26.6582C141.676 26.3438 142.032 25.8994 142.282 25.3252C142.533 24.751 142.658 24.0674 142.658 23.2744V23.2607C142.658 22.4723 142.531 21.791 142.275 21.2168C142.025 20.638 141.669 20.1914 141.209 19.877C140.753 19.5625 140.213 19.4053 139.589 19.4053C139.238 19.4053 138.917 19.4577 138.625 19.5625C138.333 19.6673 138.076 19.8154 137.853 20.0068C137.634 20.1982 137.456 20.4284 137.319 20.6973H137.203V19.5283H135.501V29.4814ZM139.056 25.6875C138.673 25.6875 138.34 25.5918 138.058 25.4004C137.775 25.2044 137.556 24.9264 137.401 24.5664C137.251 24.2018 137.176 23.7689 137.176 23.2676V23.2539C137.176 22.7526 137.251 22.3219 137.401 21.9619C137.556 21.6019 137.773 21.3262 138.051 21.1348C138.333 20.9388 138.668 20.8408 139.056 20.8408C139.443 20.8408 139.776 20.9388 140.054 21.1348C140.332 21.3262 140.546 21.6019 140.696 21.9619C140.847 22.3219 140.922 22.7549 140.922 23.2607V23.2744C140.922 23.7712 140.847 24.2018 140.696 24.5664C140.546 24.9264 140.332 25.2044 140.054 25.4004C139.776 25.5918 139.443 25.6875 139.056 25.6875ZM144.442 27H146.145V16.6367H144.442V27ZM151.483 27.1504C151.989 27.1504 152.434 27.0866 152.816 26.959C153.199 26.8268 153.523 26.6559 153.787 26.4463C154.056 26.2321 154.268 26.002 154.423 25.7559C154.582 25.5052 154.692 25.2591 154.751 25.0176L154.765 24.9561H153.151L153.131 25.0039C153.076 25.1178 152.98 25.2386 152.844 25.3662C152.707 25.4893 152.527 25.5964 152.304 25.6875C152.085 25.7741 151.823 25.8174 151.518 25.8174C151.126 25.8174 150.786 25.7308 150.499 25.5576C150.216 25.3799 149.998 25.1292 149.843 24.8057C149.688 24.4775 149.61 24.0833 149.61 23.623V22.9395C149.61 22.4609 149.688 22.0576 149.843 21.7295C150.002 21.3968 150.216 21.1462 150.485 20.9775C150.759 20.8044 151.071 20.7178 151.422 20.7178C151.773 20.7178 152.08 20.7998 152.345 20.9639C152.614 21.1279 152.823 21.374 152.974 21.7021C153.124 22.0303 153.199 22.4427 153.199 22.9395V23.6162L154.006 22.5498H148.77V23.6914H154.84V23.1309C154.84 22.3789 154.701 21.7227 154.423 21.1621C154.145 20.6016 153.748 20.1663 153.233 19.8564C152.723 19.542 152.112 19.3848 151.401 19.3848C150.695 19.3848 150.08 19.5465 149.556 19.8701C149.032 20.1891 148.626 20.6403 148.339 21.2236C148.056 21.807 147.915 22.4906 147.915 23.2744V23.2812C147.915 24.0742 148.059 24.7601 148.346 25.3389C148.633 25.9176 149.041 26.3643 149.569 26.6787C150.103 26.9932 150.741 27.1504 151.483 27.1504Z" fill="#212121"/>
</g>
<defs>
<clipPath id="clip0_1117_56834">
<rect width="169" height="44" fill="white"/>
</clipPath>
</defs>
</svg>
