<?xml version="1.0" encoding="UTF-8"?>
<svg id="Cambridge_logo" data-name="Cambridge logo" xmlns="http://www.w3.org/2000/svg" viewBox="0 0 1411.21 235.36">
  <defs>
    <style>
      .cls-1 {
        fill: #fff;
        stroke-width: 0px;
      }
    </style>
  </defs>
  <g id="University_Press_Assessment" data-name="University Press &amp;amp; Assessment">
    <path class="cls-1" d="m254.83,178.45c3.68.06,6.01.13,8.2.13,2.46,0,5.04-.07,8.46-.13v1.87h-.45c-2.78,0-4.2.32-4.2,3.62v23.84c0,6.72,3.88,11.24,11.05,11.24s11.31-4.33,11.31-11.18v-21.51c0-5.94-1.62-5.94-4.97-6.01v-1.87c1.42.06,3.94.13,6.65.13,1.94,0,3.94-.07,5.88-.13v1.87c-3.29,0-4.26.71-4.26,4.72v22.29c0,8.92-5.81,14.41-16.47,14.41s-16.73-4.78-16.73-13.18v-24.61c0-2.65-.91-3.62-4.46-3.62v-1.87Z"/>
    <path class="cls-1" d="m303.39,178.45c2.46.06,4.85.13,7.17.13,1.75,0,3.42-.07,5.81-.13l27.13,30.56v-22.55c0-5.1-1.94-6.14-6.53-6.14v-1.87c3.42.06,5.94.13,7.49.13,2.26,0,4.78-.07,7.69-.13v1.87h-1.42c-3.42,0-4.59,2.84-4.59,6.07v35.4h-1.68l-31.79-35.99v26.81c0,4.26,1.55,6.07,6.27,6.07h.26v1.87c-2.13-.06-4.33-.13-7.82-.13-1.68,0-5.43.06-7.69.13v-1.87c4.97-.06,6.33-1.55,6.33-5.75v-28.69c0-2.26-2.2-3.81-6.65-3.94v-1.87Z"/>
    <path class="cls-1" d="m375.68,220.57c-2.52-.06-5.1-.13-8.2-.13-4.91,0-6.78.06-8.72.13v-1.87c3.94,0,4.84-1.03,4.84-5.23v-29.4c0-2.78-1.03-3.75-4.65-3.75v-1.87c2.45.06,5.75.13,8.79.13,2.07,0,4.46-.07,8.08-.13v1.87c-3.81,0-4.72.65-4.72,4.26v30.56c0,2.91.9,3.49,4.59,3.55v1.87Z"/>
    <path class="cls-1" d="m382.64,178.45c3.55.06,5.88.13,8.79.13,3.1,0,6.01-.07,9.37-.13v1.87c-2.71.06-4.46.06-4.46,1.74,0,.71.19,1.68.97,3.55l10.14,25.2,9.63-25.65c.52-1.42.84-2.46.84-3.23,0-1.55-1.81-1.55-4.59-1.62v-1.87c2.65.06,3.94.13,5.69.13s3.29-.07,5.68-.13v1.87h-.39c-1.42,0-1.87.45-2.39,1.1-.39.52-.84,1.36-1.55,3.17l-14.73,37.02h-2l-15.76-38.96c-.78-1.94-2-2.26-5.23-2.33v-1.87Z"/>
    <path class="cls-1" d="m430.83,178.45c4.59.06,9.11.13,13.7.13,5.69,0,11.11-.07,17.38-.13,0,.58-.06,1.62-.06,2.45,0,1.16.06,3.55.26,6.01l-1.68.65c-.45-3.62-1.1-4.65-2-5.49-.97-.84-2-1.29-6.46-1.29-1.49,0-5.49.13-8.08.19v16.02h7.95c3.68,0,4.72-1.29,4.72-5.1h1.62c0,.78-.06,2.91-.06,5.36,0,4.2.13,5.94.19,7.69l-1.62.32v-1.03c0-3.55-1.81-4.39-4.46-4.39h-8.33v13.44c0,2.26.58,3.36,1.75,3.94,1.1.58,2.84.84,5.75.84,3.62,0,6.07-.19,7.43-.52,1.55-.39,2.39-.9,3.17-1.68.71-.78,1.42-2,2.52-4.97h1.68l-2.26,9.63c-2.97,0-16.02-.06-18.15-.06-4.13,0-7.75.06-14.92.13v-1.87c4.72-.06,5.43-1.1,5.43-4.01v-30.36c0-3.55-.71-4.01-5.43-4.01v-1.87Z"/>
    <path class="cls-1" d="m472.17,178.45c2.71.06,5.23.13,6.78.13,3.55,0,7.11-.13,10.66-.13,10.4,0,15.57,3.75,15.57,10.53,0,4.91-3.04,8.4-8.72,10.53l7.88,11.76c1.74,2.65,3.29,4.52,4.52,5.62,1.29,1.1,2.58,1.81,4.91,1.81v1.87c-1.62-.06-2.91-.13-4.39-.13-2.13,0-5.04.13-6.4.13-1.1,0-1.87-.39-3.29-2.58l-3.62-5.56c-.91-1.36-2.58-3.88-3.75-5.88-.65-1.16-3.17-5.75-3.17-5.75h-4.07v14.54c0,2.33,1.1,3.36,5.17,3.36h.45v1.87c-1.42-.06-7.56-.13-9.04-.13-2.97,0-7.3.06-9.56.13v-1.87h.32c4.33,0,5.1-1.1,5.1-4.39v-29.72c0-3.68-1.03-4.26-5.04-4.26h-.32v-1.87Zm12.92,20.16h3.55c2.39,0,3.88-.45,5.17-1.23,1.68-1.03,3.62-3.17,3.62-7.62,0-6.2-3.36-9.43-9.04-9.43-1.03,0-2.26.13-3.29.45v17.83Z"/>
    <path class="cls-1" d="m538.52,177.81l4.07.45c0,2.46.32,5.62.65,8.33l-1.68.19c-1.03-4.91-3.29-7.17-7.37-7.17-5.49,0-7.88,4.13-7.88,7.37,0,4.01,2.91,5.81,9.11,9.04,7.11,3.68,9.69,7.82,9.69,12.86,0,7.75-6.65,12.47-14.28,12.47-3.75,0-6.98-.97-10.72-2.71-.39-5.23-.71-7.88-.9-8.72l1.62-.26c1.74,5.81,4.13,9.5,9.82,9.5s8.2-4.01,8.2-7.56c0-4.78-4.01-6.78-8.66-9.11-5.69-2.84-9.75-6.2-9.75-12.6,0-7.69,5.56-12.47,13.63-12.47.71,0,2.13.13,4.46.39Z"/>
    <path class="cls-1" d="m568.44,220.57c-2.52-.06-5.1-.13-8.21-.13-4.91,0-6.78.06-8.72.13v-1.87c3.94,0,4.84-1.03,4.84-5.23v-29.4c0-2.78-1.03-3.75-4.65-3.75v-1.87c2.46.06,5.75.13,8.79.13,2.07,0,4.46-.07,8.08-.13v1.87c-3.81,0-4.72.65-4.72,4.26v30.56c0,2.91.9,3.49,4.59,3.55v1.87Z"/>
    <path class="cls-1" d="m574.79,186.59c.71-3.68,1.03-6.07,1.16-10.34h1.36c.45,1.42,1.42,2.13,3.29,2.13h31.91c2.07,0,2.65-.52,3.62-2.13l1.1.52c-.78,5.04-.78,7.43-.78,9.63l-1.49.58c-.19-3.42-.58-4.13-1.29-4.85-.78-.77-2.33-1.16-4.65-1.16h-8.98v33.08c0,3.81,1.29,4.59,5.94,4.65v1.87c-3.55-.06-6.33-.13-9.5-.13s-6.07.06-9.63.13v-1.87h.84c3.81,0,4.85-.39,4.85-5.43v-32.3h-8.79c-4.97,0-6.4,1.36-7.17,5.62h-1.81Z"/>
    <path class="cls-1" d="m623.65,178.45c4.26.06,6.01.13,9.04.13s4.78-.07,9.11-.13v1.87c-1.81.06-3.36.19-3.36,1.29,0,.32.13.9.97,2.07l9.3,12.53,7.95-11.95c.52-.78,1.29-2,1.29-2.65,0-1.16-1.62-1.23-4.26-1.29v-1.87c2.91.06,5.17.13,6.53.13,1.68,0,3.23-.07,5.62-.13v1.87c-1.75,0-3.1.52-4.46,2.39l-11.44,16.02v16.6c0,2.58,1.1,3.36,5.69,3.36v1.87c-2.97-.06-4.39-.13-9.11-.13-3.29,0-6.53.06-9.82.13v-1.87c4.46-.06,5.62-.32,5.62-3.94v-14.28l-13.76-18.67c-.91-1.23-2.58-1.49-4.91-1.49v-1.87Z"/>
    <path class="cls-1" d="m702.65,214.63c0,4.07,2.71,4.07,6.2,4.07v1.87c-2-.06-6.53-.13-9.88-.13-3.88,0-5.94.06-8.53.13v-1.87c3.36,0,4.65-.65,4.65-4.26v-30.3c0-3.62-1.55-3.81-4.59-3.81v-1.87c2.46.06,5.69.13,7.75.13,3.42,0,6.46-.13,9.24-.13,9.69,0,14.02,4.78,14.02,11.44,0,3.88-1.62,6.53-3.04,8.01-1.74,1.81-4.33,4-11.82,4h-.97v-1.68h.32c5.23,0,7.88-3.23,7.88-9.24,0-1.36-.26-10.66-7.82-10.66-1.49,0-2.78.13-3.42.19v34.11Z"/>
    <path class="cls-1" d="m726.68,178.45c2.71.06,5.23.13,6.78.13,3.55,0,7.11-.13,10.66-.13,10.4,0,15.57,3.75,15.57,10.53,0,4.91-3.04,8.4-8.72,10.53l7.88,11.76c1.74,2.65,3.29,4.52,4.52,5.62,1.29,1.1,2.58,1.81,4.91,1.81v1.87c-1.62-.06-2.91-.13-4.39-.13-2.13,0-5.04.13-6.4.13-1.1,0-1.87-.39-3.29-2.58l-3.62-5.56c-.91-1.36-2.58-3.88-3.75-5.88-.65-1.16-3.17-5.75-3.17-5.75h-4.07v14.54c0,2.33,1.1,3.36,5.17,3.36h.45v1.87c-1.42-.06-7.56-.13-9.04-.13-2.97,0-7.3.06-9.56.13v-1.87h.32c4.33,0,5.1-1.1,5.1-4.39v-29.72c0-3.68-1.03-4.26-5.04-4.26h-.32v-1.87Zm12.92,20.16h3.55c2.39,0,3.88-.45,5.17-1.23,1.68-1.03,3.62-3.17,3.62-7.62,0-6.2-3.36-9.43-9.04-9.43-1.03,0-2.26.13-3.29.45v17.83Z"/>
    <path class="cls-1" d="m773.83,178.45c4.59.06,9.11.13,13.7.13,5.69,0,11.11-.07,17.38-.13,0,.58-.06,1.62-.06,2.45,0,1.16.06,3.55.26,6.01l-1.68.65c-.45-3.62-1.1-4.65-2-5.49-.97-.84-2-1.29-6.46-1.29-1.49,0-5.49.13-8.08.19v16.02h7.95c3.68,0,4.72-1.29,4.72-5.1h1.62c0,.78-.06,2.91-.06,5.36,0,4.2.13,5.94.19,7.69l-1.62.32v-1.03c0-3.55-1.81-4.39-4.46-4.39h-8.33v13.44c0,2.26.58,3.36,1.75,3.94,1.1.58,2.84.84,5.75.84,3.62,0,6.07-.19,7.43-.52,1.55-.39,2.39-.9,3.17-1.68.71-.78,1.42-2,2.52-4.97h1.68l-2.26,9.63c-2.97,0-16.02-.06-18.15-.06-4.13,0-7.75.06-14.92.13v-1.87c4.72-.06,5.43-1.1,5.43-4.01v-30.36c0-3.55-.71-4.01-5.43-4.01v-1.87Z"/>
    <path class="cls-1" d="m834.82,177.81l4.07.45c0,2.46.32,5.62.65,8.33l-1.68.19c-1.03-4.91-3.29-7.17-7.37-7.17-5.49,0-7.88,4.13-7.88,7.37,0,4.01,2.91,5.81,9.11,9.04,7.11,3.68,9.69,7.82,9.69,12.86,0,7.75-6.65,12.47-14.28,12.47-3.75,0-6.98-.97-10.72-2.71-.39-5.23-.71-7.88-.9-8.72l1.62-.26c1.74,5.81,4.13,9.5,9.82,9.5s8.21-4.01,8.21-7.56c0-4.78-4.01-6.78-8.66-9.11-5.69-2.84-9.75-6.2-9.75-12.6,0-7.69,5.56-12.47,13.63-12.47.71,0,2.13.13,4.46.39Z"/>
    <path class="cls-1" d="m868.35,177.81l4.07.45c0,2.46.32,5.62.65,8.33l-1.68.19c-1.03-4.91-3.29-7.17-7.37-7.17-5.49,0-7.88,4.13-7.88,7.37,0,4.01,2.91,5.81,9.11,9.04,7.11,3.68,9.69,7.82,9.69,12.86,0,7.75-6.65,12.47-14.28,12.47-3.75,0-6.98-.97-10.72-2.71-.39-5.23-.71-7.88-.9-8.72l1.62-.26c1.74,5.81,4.13,9.5,9.82,9.5s8.21-4.01,8.21-7.56c0-4.78-4.01-6.78-8.66-9.11-5.69-2.84-9.75-6.2-9.75-12.6,0-7.69,5.56-12.47,13.63-12.47.71,0,2.13.13,4.46.39Z"/>
    <path class="cls-1" d="m927.85,184.52c0,3.62-2.97,6.46-7.11,8.08,3.3,1.87,5.88,3.81,7.88,5.62,2,1.81,4.13,4.2,6.53,7.17,2.39-3.75,3.88-6.14,4.85-8.01,1.16-2.2,1.68-3.68,1.68-4.65,0-1.29-.9-2.13-3.42-2.13h-.39v-1.49h16.41v1.42c-4.72.26-6.65,1.36-9.37,4.39-1.29,1.42-4.91,6.78-8.59,11.95,4.52,7.24,8.21,10.34,12.02,10.34,2.13,0,4.33-1.1,6.65-3.49l1.16,1.1c-4.46,5.43-8.2,7.17-11.76,7.17s-6.72-2-9.11-4.91c-1.36-1.62-2-2.78-3.42-4.72l-2.78,2.71c-2.58,2.58-6.2,6.27-12.4,6.27-6.85,0-12.6-5.17-12.6-12.15s4.72-10.34,9.69-13.83c-2.78-2.26-4.33-4.78-4.33-7.95,0-4.39,3.55-9.24,10.21-9.24,4.91,0,8.21,2.52,8.21,6.33Zm-6.78,31.33c3.75,0,6.53-1.42,9.56-5.04-2.58-3.62-5.1-6.46-7.24-8.33-2.07-1.87-4.59-3.75-8.14-6.07-3.1,1.94-5.49,5.04-5.49,8.92,0,5.43,4.33,10.53,11.31,10.53Zm-1.49-24.1c2-1.55,3.68-3.17,3.68-6.14,0-2.13-1.1-5.56-4.59-5.56-2.78,0-4.59,2.2-4.59,4.78s2.07,5.43,5.49,6.91Z"/>
    <path class="cls-1" d="m1008.85,186.59l8.4,24.36c1.1,3.1,1.94,5.17,2.52,6.2.58,1.03,1.81,1.55,3.62,1.55h.39v1.87c-4.2-.06-5.62-.13-7.82-.13-2,0-4.2.06-9.37.13v-1.87c2.65-.06,4.46-.13,4.46-1.55,0-.39-.13-.9-.39-1.68l-3.29-9.76h-13.96l-2.58,7.37c-.58,1.68-.78,2.65-.78,3.42,0,2,2.71,2.13,5.1,2.2v1.87c-2.26-.06-4.59-.13-6.4-.13-3.55,0-5.75.06-7.24.13v-1.87c3.23,0,4.52-.9,6.01-4.91l7.69-21,2.2-6.07c.84-2.39,1.55-4.72,2.07-7.04,2.91-1.1,3.68-1.49,6.27-2.91,1.03,3.81,2.2,7.24,3.1,9.82Zm-8.4-1.36l-6.01,17.38h11.89l-5.75-17.38h-.13Z"/>
    <path class="cls-1" d="m1049.68,177.81l4.07.45c0,2.46.32,5.62.65,8.33l-1.68.19c-1.03-4.91-3.29-7.17-7.37-7.17-5.49,0-7.88,4.13-7.88,7.37,0,4.01,2.91,5.81,9.11,9.04,7.11,3.68,9.69,7.82,9.69,12.86,0,7.75-6.65,12.47-14.28,12.47-3.75,0-6.98-.97-10.72-2.71-.39-5.23-.71-7.88-.9-8.72l1.62-.26c1.74,5.81,4.13,9.5,9.82,9.5s8.2-4.01,8.2-7.56c0-4.78-4.01-6.78-8.66-9.11-5.69-2.84-9.75-6.2-9.75-12.6,0-7.69,5.56-12.47,13.63-12.47.71,0,2.13.13,4.46.39Z"/>
    <path class="cls-1" d="m1083.2,177.81l4.07.45c0,2.46.32,5.62.65,8.33l-1.68.19c-1.03-4.91-3.3-7.17-7.37-7.17-5.49,0-7.88,4.13-7.88,7.37,0,4.01,2.91,5.81,9.11,9.04,7.11,3.68,9.69,7.82,9.69,12.86,0,7.75-6.65,12.47-14.28,12.47-3.75,0-6.98-.97-10.72-2.71-.39-5.23-.71-7.88-.9-8.72l1.62-.26c1.74,5.81,4.13,9.5,9.82,9.5s8.21-4.01,8.21-7.56c0-4.78-4.01-6.78-8.66-9.11-5.69-2.84-9.75-6.2-9.75-12.6,0-7.69,5.56-12.47,13.63-12.47.71,0,2.13.13,4.46.39Z"/>
    <path class="cls-1" d="m1096,178.45c4.59.06,9.11.13,13.7.13,5.69,0,11.11-.07,17.38-.13,0,.58-.06,1.62-.06,2.45,0,1.16.06,3.55.26,6.01l-1.68.65c-.45-3.62-1.1-4.65-2-5.49-.97-.84-2-1.29-6.46-1.29-1.49,0-5.49.13-8.08.19v16.02h7.95c3.68,0,4.72-1.29,4.72-5.1h1.62c0,.78-.06,2.91-.06,5.36,0,4.2.13,5.94.19,7.69l-1.62.32v-1.03c0-3.55-1.81-4.39-4.46-4.39h-8.33v13.44c0,2.26.58,3.36,1.75,3.94,1.1.58,2.84.84,5.75.84,3.62,0,6.07-.19,7.43-.52,1.55-.39,2.39-.9,3.16-1.68.71-.78,1.42-2,2.52-4.97h1.68l-2.26,9.63c-2.97,0-16.02-.06-18.15-.06-4.13,0-7.75.06-14.92.13v-1.87c4.72-.06,5.43-1.1,5.43-4.01v-30.36c0-3.55-.71-4.01-5.43-4.01v-1.87Z"/>
    <path class="cls-1" d="m1156.99,177.81l4.07.45c0,2.46.32,5.62.65,8.33l-1.68.19c-1.03-4.91-3.29-7.17-7.37-7.17-5.49,0-7.88,4.13-7.88,7.37,0,4.01,2.91,5.81,9.11,9.04,7.11,3.68,9.69,7.82,9.69,12.86,0,7.75-6.65,12.47-14.28,12.47-3.75,0-6.98-.97-10.72-2.71-.39-5.23-.71-7.88-.9-8.72l1.62-.26c1.74,5.81,4.13,9.5,9.82,9.5s8.21-4.01,8.21-7.56c0-4.78-4.01-6.78-8.66-9.11-5.69-2.84-9.75-6.2-9.75-12.6,0-7.69,5.56-12.47,13.63-12.47.71,0,2.13.13,4.46.39Z"/>
    <path class="cls-1" d="m1190.52,177.81l4.07.45c0,2.46.32,5.62.65,8.33l-1.68.19c-1.03-4.91-3.29-7.17-7.37-7.17-5.49,0-7.88,4.13-7.88,7.37,0,4.01,2.91,5.81,9.11,9.04,7.11,3.68,9.69,7.82,9.69,12.86,0,7.75-6.65,12.47-14.28,12.47-3.75,0-6.98-.97-10.72-2.71-.39-5.23-.71-7.88-.9-8.72l1.62-.26c1.74,5.81,4.13,9.5,9.82,9.5s8.2-4.01,8.2-7.56c0-4.78-4.01-6.78-8.66-9.11-5.69-2.84-9.75-6.2-9.75-12.6,0-7.69,5.56-12.47,13.63-12.47.71,0,2.13.13,4.46.39Z"/>
    <path class="cls-1" d="m1205.27,178.45c2.59.06,4.85.13,6.27.13,1.87,0,3.75-.07,6.4-.13l14.15,31.85c4.2-9.11,8.98-20.22,14.15-31.85,2.2.06,4.01.13,5.49.13s3.49-.07,6.91-.13v1.87h-.45c-3.62,0-5.04.52-5.04,3.42,0,.91.06,1.94.13,2.71l2.2,28.94c.26,3.04,1.94,3.3,5.43,3.3v1.87c-2.46-.06-5.43-.13-8.4-.13-4.01,0-7.24.06-10.01.13v-1.87c3.1-.06,5.3-.39,5.3-2.78,0-.58-.06-1.42-.13-2.13l-1.94-27.2h-.13l-15.63,35.02h-1.1l-15.12-34.24h-.13l-2.13,24.81c-.06.97-.13,1.87-.13,2.39,0,2.78,1.23,4.13,4.13,4.13h1.62v1.87c-2.26-.06-4.46-.13-7.49-.13-3.75,0-5.94.06-7.69.13v-1.87h.65c2.26,0,3.49-.13,4.46-1.16.84-.84,1.36-2.52,1.62-5.17l2.39-23.9c.13-1.36.19-2.58.19-3.42,0-4.2-2.2-4.65-5.94-4.72v-1.87Z"/>
    <path class="cls-1" d="m1267.74,178.45c4.59.06,9.11.13,13.7.13,5.69,0,11.11-.07,17.38-.13,0,.58-.06,1.62-.06,2.45,0,1.16.06,3.55.26,6.01l-1.68.65c-.45-3.62-1.1-4.65-2-5.49-.97-.84-2-1.29-6.46-1.29-1.49,0-5.49.13-8.08.19v16.02h7.95c3.68,0,4.72-1.29,4.72-5.1h1.61c0,.78-.06,2.91-.06,5.36,0,4.2.13,5.94.2,7.69l-1.62.32v-1.03c0-3.55-1.81-4.39-4.46-4.39h-8.33v13.44c0,2.26.58,3.36,1.74,3.94,1.1.58,2.84.84,5.75.84,3.62,0,6.07-.19,7.43-.52,1.55-.39,2.39-.9,3.17-1.68.71-.78,1.42-2,2.52-4.97h1.68l-2.26,9.63c-2.97,0-16.02-.06-18.15-.06-4.13,0-7.75.06-14.92.13v-1.87c4.72-.06,5.43-1.1,5.43-4.01v-30.36c0-3.55-.71-4.01-5.43-4.01v-1.87Z"/>
    <path class="cls-1" d="m1308.07,178.45c2.46.06,4.85.13,7.17.13,1.74,0,3.42-.07,5.81-.13l27.13,30.56v-22.55c0-5.1-1.94-6.14-6.53-6.14v-1.87c3.42.06,5.94.13,7.49.13,2.26,0,4.78-.07,7.69-.13v1.87h-1.42c-3.42,0-4.59,2.84-4.59,6.07v35.4h-1.68l-31.79-35.99v26.81c0,4.26,1.55,6.07,6.27,6.07h.26v1.87c-2.13-.06-4.33-.13-7.82-.13-1.68,0-5.43.06-7.69.13v-1.87c4.97-.06,6.33-1.55,6.33-5.75v-28.69c0-2.26-2.2-3.81-6.65-3.94v-1.87Z"/>
    <path class="cls-1" d="m1362.93,186.59c.71-3.68,1.03-6.07,1.16-10.34h1.36c.45,1.42,1.42,2.13,3.29,2.13h31.92c2.07,0,2.65-.52,3.62-2.13l1.1.52c-.78,5.04-.78,7.43-.78,9.63l-1.48.58c-.2-3.42-.58-4.13-1.29-4.85-.78-.77-2.33-1.16-4.65-1.16h-8.98v33.08c0,3.81,1.29,4.59,5.94,4.65v1.87c-3.55-.06-6.33-.13-9.5-.13s-6.07.06-9.62.13v-1.87h.84c3.81,0,4.84-.39,4.84-5.43v-32.3h-8.79c-4.97,0-6.4,1.36-7.17,5.62h-1.81Z"/>
  </g>
  <g id="Cambridge">
    <path class="cls-1" d="m1399.53,13.72l.36,27.74s-3.37.85-4.43,1.14c-.99-12.13-3.74-22.03-23.14-22.03h-26.07v51.28h22.37c10.98,0,13.96-6.14,15.2-16.73h4.45v42.88l-4.44.07c-.69-10.26-3.1-18.22-15.12-18.22h-22.47v45.03c0,13.09,11.27,13.09,23.22,13.09,21.42,0,31.35-1.34,37.34-23.02.87.22,4.39.98,4.39.98l-6,28.9h-97.32v-4.8h1.85c7.47,0,14.37-1.39,14.37-11.58V30.1c0-10.18-6.9-11.59-14.37-11.59h-1.85v-4.79h91.65"/>
    <path class="cls-1" d="m869.15,13.72c29.03,0,43.44,10.69,43.44,32.68,0,18.65-14.56,28.1-26.03,32.74l-.85.35,32.16,48.97c5.14,7.94,9.35,11.01,18.2,11.49v4.9h-33.56l-39.01-61.57h-14.48v40.83c0,14.8,6.56,15.94,15.84,15.94h2.6v4.8h-56.99v-4.8h2.59c6.37,0,13.82-2.88,13.82-11V33.7c0-15.19-8.98-15.19-13.82-15.19h-2.59v-4.79h58.7m-20.13,6.17v58.05s11.19,0,11.19,0c20.41,0,29.41-9.1,29.41-30.4,0-17.29-11.14-28.48-27.92-28.48-3.93,0-8.96.23-12.68.83Z"/>
    <path class="cls-1" d="m998.83,13.69v4.8h-1.85c-7.47,0-14.37,1.41-14.37,11.58v98.37c0,10.18,6.9,11.58,14.37,11.58h1.85v4.8h-54.77v-4.8h1.85c7.47,0,14.37-1.4,14.37-11.58V30.07c0-10.17-6.9-11.58-14.37-11.58h-1.85v-4.8h54.77"/>
    <path class="cls-1" d="m248.71,79.17c0-19.49,7.91-38.64,21.52-50.84,12.63-11.32,29.21-17.68,47.93-17.68,16.77,0,30.74,3.03,44.41,9.42l1.39,30.35-4.31.56c-4.94-17.6-13.17-33.71-40.95-33.71s-46.27,22.59-46.27,58.98c0,32.39,14.34,63.01,49.06,63.01,19.52,0,33.43-7.31,43.94-20.81l3.43,6.42c-11.83,15.3-30.1,23.45-50.9,23.45-42.28,0-69.26-24.95-69.26-69.14"/>
    <path class="cls-1" d="m531.45,39.07s-4.35,80.98-4.35,80.98c-.79,17.93,4.77,19.5,16.82,19.96h1.12v4.76h-44.2v-4.76h1.69c14.89-.59,15.8-8.88,16.5-20.98l5.13-82.89c.67-11.31-5.53-17.73-15.95-17.73h-1.52v-4.77h37.11c.44,1.05,44.53,99.37,44.53,99.37,0,0,41.69-98.34,42.13-99.38h36.39v4.83h-.7c-14.75,0-17.36,4.58-16.25,23.12l5.07,86.97c.78,10.17,6.11,11.1,16.15,11.47v4.73h-54.41v-4.73c.15-.02.36-.02.36-.02,8.86-.54,15.26-.91,15.26-9.81l-.19-9.4s-3.99-83.84-3.99-83.84c0,0-44.89,107.76-45.34,108.81h-3.96c-.45-1.06-47.41-106.67-47.41-106.67"/>
    <path class="cls-1" d="m1019.47,144.81v-4.81h1.86c7.46,0,14.37-1.4,14.37-11.58V30.07c0-10.18-6.9-11.58-14.37-11.58h-1.86v-4.8l58.62-.05c21.79,0,40.04,5.48,52.79,17.34,12.56,11.7,19.21,28.26,19.21,47.92,0,18.37-7.32,36.16-20.06,48.82-12.83,12.71-30.79,17.05-48.97,17.05l-61.58.04Zm38.5-124.87v102.96c-.01,13.9,5.87,16.15,19.93,16.15,33.13,0,48.21-28.53,48.21-56.48,0-43.45-17.94-63.24-54.81-63.24-3.25,0-10.19.29-13.33.61Z"/>
    <path class="cls-1" d="m1261.67,138.07v-32.15c0-7.03-5.11-10.75-14.8-10.75h-1.53v-4.68h50.4v4.68h-1.53c-7.05,0-10.77,3.72-10.77,10.75l-.02,35.78c-12.03,3.87-28.17,6.93-46.1,6.93-43.27,0-71.25-28.06-71.25-71.47,0-46.17,36.89-67.21,71.61-67.21,15.55,0,31.53,3.09,41.67,6.48l2.09,31.3-4.4.28c-5.44-22.54-15.49-31.38-38.06-31.38-30.46,0-48.93,22.46-48.93,58.6,0,33.21,15.59,66.12,50.4,66.12,8.02.18,16.32-1.05,21.23-3.29"/>
    <path class="cls-1" d="m728.27,76.91v46.14c0,12.81,4.08,16.48,17.38,16.48,15.97,0,28.02-13.15,28.02-31.05,0-20.14-12.26-31.57-32.8-31.57h-12.6Zm0-58.38v52.66h9.86c18.06,0,28.01-8.76,28.01-25.52,0-18.52-8.75-27.13-26.01-27.13h-11.87Zm26.87,54.9c16.5,1.21,25.28,4.84,32.67,12.41,5.71,5.84,8.73,13.25,8.73,21.87,0,20.58-18.86,37.07-43.39,37.07h-64.24v-4.76h2.59c6.36,0,13.81-3.03,13.81-11.17V33.71c0-15.19-8.99-15.19-13.81-15.19h-2.59v-4.8l58.21-.03c27.33,0,42.38,9.91,42.38,28.67,0,20.77-18.28,28.45-34.36,31.05"/>
    <path class="cls-1" d="m427.02,13.68s-41.62,113.17-41.62,113.18c-3.09,8.04-8.53,13-16.61,13h-.45l-.02,4.92h39.91v-4.92h-1.75c-9.61,0-16.14-3.07-11.96-15.47l9.52-26.44h41.32l10.33,28.82c2.97,9.1-.9,13.23-10.77,13.23h-1.15v4.84h50.77v-4.84s-.39,0-.39,0c-6.77,0-11.4-3.55-14.56-12.54l-42.7-113.76-9.87-.02Zm-2.28,26.75l18.32,51.08h-36.68l18.37-51.08Z"/>
  </g>
  <g>
    <path class="cls-1" d="m0,0v122.39c0,60.17,31.6,77.35,46.78,85.6,2.79,1.52,49.65,24.81,52.65,26.3l2.02,1.08,2.02-1.08c2.71-1.35,49.86-24.78,52.65-26.3,15.19-8.25,46.79-25.43,46.79-85.6V0H0Zm4.39,4.39h76.43v77.99H4.39V4.39Zm85.08,152.05l-1.58-1.87,1.99-2.37,2,2.37-1.58,1.87c-.02.95-.08,9.22,4.79,12.17,0,0-1.62.31-3.81-.11,0,0-.38,2.16-1.4,4.62-1.02-2.46-1.4-4.62-1.4-4.62-2.18.42-3.81.11-3.81.11,4.88-2.96,4.82-11.23,4.79-12.17Zm0,42.26l-1.58-1.88,1.99-2.37,2,2.37-1.58,1.88c-.02.95-.08,9.22,4.79,12.17,0,0-1.62.31-3.81-.11,0,0-.38,2.16-1.4,4.62-1.02-2.46-1.4-4.62-1.4-4.62-2.18.42-3.81.11-3.81.11,4.88-2.96,4.82-11.23,4.79-12.17Zm6.88-8.95c4.88-2.96,4.82-11.23,4.8-12.17l-1.58-1.88,1.99-2.37,1.99,2.37-1.58,1.88c-.03.94-.08,9.22,4.79,12.17,0,0-1.63.31-3.81-.11,0,0-.38,2.16-1.4,4.62-1.02-2.46-1.4-4.62-1.4-4.62-2.18.42-3.81.11-3.81.11Zm4.8-54.43l-1.58-1.87,1.99-2.37,1.99,2.37-1.58,1.87c-.03.95-.08,9.21,4.79,12.17,0,0-1.63.32-3.81-.11,0,0-.38,2.16-1.4,4.62-1.02-2.46-1.4-4.62-1.4-4.62-2.18.42-3.81.11-3.81.11,4.88-2.96,4.82-11.22,4.8-12.17Zm11.54,63.39l-1.58-1.88,1.99-2.37,2,2.37-1.58,1.88c-.02.95-.08,9.22,4.79,12.17,0,0-1.62.31-3.81-.11,0,0-.38,2.16-1.4,4.62-1.02-2.46-1.4-4.62-1.4-4.62-2.18.42-3.81.11-3.81.11,4.88-2.96,4.82-11.23,4.79-12.17Zm1.82-30.2s-.38,2.16-1.4,4.62c-1.02-2.46-1.4-4.62-1.4-4.62-2.18.42-3.81.11-3.81.11,4.88-2.96,4.82-11.23,4.79-12.17l-1.58-1.87,1.99-2.37,2,2.37-1.58,1.87c-.02.95-.08,9.22,4.79,12.17,0,0-1.62.31-3.81-.11Zm3.26-49.53v12.87h-7.44v-12.87h-18.81v12.87h-7.45v-13h-6.33v-33.45h6.86c.77-1.63,1.83-2.35,3.47-2.35s2.66.68,3.59,2.35h5.62c.68-1.5,2.02-2.36,3.68-2.36,1.53,0,3,.99,3.5,2.36h5.23c.79-1.52,1.99-2.36,3.42-2.36s2.63.67,3.5,1.97l.26.39h7.25v33.58h-6.34Zm-28.29-101.04l-1.58-1.88,1.99-2.37,2,2.37-1.58,1.88c-.02.94-.08,9.21,4.79,12.17,0,0-1.62.31-3.81-.11,0,0-.38,2.16-1.4,4.61-1.02-2.46-1.4-4.61-1.4-4.61-2.18.42-3.81.11-3.81.11,4.88-2.96,4.82-11.23,4.79-12.17Zm0,42.26l-1.58-1.88,1.99-2.37,2,2.37-1.58,1.88c-.02.94-.08,9.21,4.79,12.17,0,0-1.62.31-3.81-.11,0,0-.38,2.16-1.4,4.61-1.02-2.46-1.4-4.61-1.4-4.61-2.18.42-3.81.11-3.81.11,4.88-2.96,4.82-11.23,4.79-12.17Zm11.67-21.13l-1.58-1.88,1.99-2.37,1.99,2.37-1.58,1.88c-.03.94-.08,9.21,4.79,12.17,0,0-1.63.31-3.81-.11,0,0-.38,2.16-1.4,4.61-1.02-2.46-1.4-4.61-1.4-4.61-2.18.42-3.81.11-3.81.11,4.88-2.96,4.82-11.23,4.8-12.17Zm11.54,21.13l-1.58-1.88,1.99-2.37,2,2.37-1.58,1.88c-.02.94-.08,9.21,4.79,12.17,0,0-1.62.31-3.81-.11,0,0-.38,2.16-1.4,4.61-1.02-2.46-1.4-4.61-1.4-4.61-2.18.42-3.81.11-3.81.11,4.88-2.96,4.82-11.23,4.79-12.17Zm1.82-30.2s-.38,2.16-1.4,4.61c-1.02-2.46-1.4-4.61-1.4-4.61-2.18.42-3.81.11-3.81.11,4.88-2.96,4.82-11.23,4.79-12.17l-1.58-1.88,1.99-2.37,2,2.37-1.58,1.88c-.02.94-.08,9.21,4.79,12.17,0,0-1.62.31-3.81-.11Zm-47.49,59.58l-1.58-1.87,1.99-2.37,1.99,2.37-1.58,1.87c-.02.95-.08,9.22,4.79,12.17,0,0-1.63.31-3.81-.11,0,0-.38,2.15-1.4,4.61-1.02-2.46-1.4-4.61-1.4-4.61-2.18.42-3.81.11-3.81.11,4.88-2.96,4.82-11.23,4.79-12.17Zm-12.45,14.05l-1.58-1.87,2-2.37,1.99,2.37-1.58,1.87c-.02.95-.08,9.22,4.79,12.17,0,0-1.63.31-3.81-.11,0,0-.38,2.16-1.4,4.62-1.02-2.46-1.4-4.62-1.4-4.62-2.18.42-3.81.11-3.81.11,4.88-2.96,4.82-11.23,4.79-12.17Zm-12.45-14.05l-1.58-1.87,1.99-2.37,1.99,2.37-1.58,1.87c-.02.95-.08,9.22,4.79,12.17,0,0-1.63.31-3.81-.11,0,0-.38,2.15-1.4,4.61-1.02-2.46-1.4-4.61-1.4-4.61-2.18.42-3.81.11-3.81.11,4.88-2.96,4.82-11.23,4.8-12.17Zm-12.45,14.05l-1.58-1.87,1.99-2.37,1.99,2.37-1.58,1.87c-.02.95-.08,9.22,4.79,12.17,0,0-1.63.31-3.81-.11,0,0-.38,2.16-1.4,4.62-1.02-2.46-1.4-4.62-1.4-4.62-2.18.42-3.81.11-3.81.11,4.88-2.96,4.82-11.23,4.79-12.17Zm-12.45-14.05l-1.58-1.87,1.99-2.37,2,2.37-1.58,1.87c-.02.95-.08,9.22,4.79,12.17,0,0-1.62.31-3.81-.11,0,0-.38,2.15-1.4,4.61-1.02-2.46-1.4-4.61-1.4-4.61-2.18.42-3.81.11-3.81.11,4.88-2.96,4.82-11.23,4.79-12.17Zm31.66,114.55c-15.38-8.36-44.05-24.56-44.49-80.46h76.42v96.45c-14.05-6.99-30.38-15.14-31.93-15.99Zm105.16,0c-1.56.85-17.88,8.99-31.93,15.99v-96.45h76.42c-.43,55.91-29.11,72.1-44.48,80.46Zm-18.96-114.55l-1.58-1.87,1.99-2.37,2,2.37-1.58,1.87c-.02.95-.08,9.22,4.79,12.17,0,0-1.63.31-3.81-.11,0,0-.38,2.15-1.4,4.61-1.02-2.46-1.4-4.61-1.4-4.61-2.18.42-3.81.11-3.81.11,4.88-2.96,4.82-11.23,4.79-12.17Zm12.45,14.05l-1.58-1.87,2-2.37,1.99,2.37-1.58,1.87c-.02.95-.08,9.22,4.79,12.17,0,0-1.62.31-3.81-.11,0,0-.38,2.16-1.4,4.62-1.02-2.46-1.4-4.62-1.4-4.62-2.18.42-3.81.11-3.81.11,4.88-2.96,4.82-11.23,4.79-12.17Zm12.45-14.05l-1.58-1.87,2-2.37,1.99,2.37-1.58,1.87c-.02.95-.08,9.22,4.79,12.17,0,0-1.62.31-3.81-.11,0,0-.38,2.15-1.4,4.61-1.02-2.46-1.4-4.61-1.4-4.61-2.18.42-3.81.11-3.81.11,4.88-2.96,4.82-11.23,4.79-12.17Zm12.45,14.05l-1.58-1.87,1.99-2.37,1.99,2.37-1.58,1.87c-.03.95-.08,9.22,4.79,12.17,0,0-1.62.31-3.81-.11,0,0-.38,2.16-1.4,4.62-1.02-2.46-1.4-4.62-1.4-4.62-2.18.42-3.81.11-3.81.11,4.88-2.96,4.82-11.23,4.79-12.17Zm12.45-14.05l-1.58-1.87,1.99-2.37,1.99,2.37-1.58,1.87c-.02.95-.08,9.22,4.79,12.17,0,0-1.62.31-3.81-.11,0,0-.38,2.15-1.4,4.61-1.02-2.46-1.4-4.61-1.4-4.61-2.18.42-3.81.11-3.81.11,4.88-2.96,4.82-11.23,4.79-12.17Zm13.67-7.2h-76.43V4.39h76.43v77.99Z"/>
    <path class="cls-1" d="m71.95,36.12c0-2.01-1.05-4.27-2.65-5.73-.91-.82-1.82-1.43-2.14-1.43-.18,0-.33.15-.33.34l.07.83v.08c0,.32-.19.58-.44.58-.33,0-.7-.43-1.12-1.3-1.23-2.55-3.17-4.07-5.18-4.07-.34,0-.58.14-.58.34,0,.13.1.45.32.94l.52,1.16c.14.31.21.51.21.6,0,.07-.12.14-.28.14-.3,0-.77-.26-1.1-.61l-.97-1.04-.84-1.3c-.68-1.03-1.22-1.51-2.66-2.26-.8-.43-1.32-.71-1.55-.84-.3-.17-.57-.26-.81-.26s-.35.11-.35.34c0,.21.09.46.25.7.48.74.67,1.11.67,1.3,0,.21-.15.38-.33.38-.5,0-1.55-1.02-2.47-2.39-.76-1.14-1.17-2.41-1.17-3.64,0-2.78,2.03-4.85,4.78-4.85,1.42,0,3.22.6,4.87,1.62l3.04,1.88c1.06.66,2.61,1.17,3.54,1.17.41,0,1.27-.15,1.9-.33.28-.08.55-.19.78-.32.18-.11.31-.25.31-.37,0-.13-.07-.25-.18-.28l-.39-.13-1.42-.26c-.37-.07-.96-.28-1.74-.65-1.71-.78-2.8-1.32-3.24-1.62-1.06-.7-1.78-1.11-2.14-1.23-.53-.18-.86-.41-.86-.62s.1-.28.29-.28.43.08.69.25c.96.6,1.79.91,2.4.91l2.79.97c1.38.48,3.4.91,4.31.91,1.17,0,2.13-.96,2.13-2.14,0-.76-.45-1.9-1.12-2.84-.15-.21-.31-.33-.44-.33-.26,0-.4.19-.4.52l.06.52.1.77c0,.84-.57,1.5-1.28,1.5-.26,0-.61-.07-1.02-.21l-4.21-1.35c-3.53-1.14-5.16-1.49-6.93-1.49-5.04,0-8.88,3.46-8.88,8.01,0,5.15,3.62,8.48,12.57,11.55,8.8,3.02,10.04,3.76,10.04,6.03,0,1.3-1.32,2.46-2.79,2.46-.6,0-1.12-.05-1.55-.13-.3-.06-1.77-.41-4.4-1.03-2.66-.64-5.08-.91-8.06-.91-6.36,0-9.88,1.11-12.93,4.09-.76.74-1.02.85-1.89.85l-.44-.02-.91-.06h-.12c-.76,0-1.32.35-1.83,1.17-.68,1.1-1.06,1.68-1.1,1.75-.18.24-.46.39-.74.39-.58,0-.93-.44-1.59-2.01-.32-.76-.78-1.43-1.36-1.95l-1.3-1.17c-.21-.19-.33-.36-.33-.49,0-.14.09-.35.26-.6.62-.9.84-1.3.91-1.69.17-.86.2-.9.55-.9.4,0,.52.4.55,1.88,0,.43.18,1.02.52,1.75l.71,1.56c.09.2.32.33.58.33.67,0,1.52-1.58,1.75-3.24.19-1.39.33-1.82.62-1.82.12,0,.23.05.28.14.07.09.26.48.58,1.16.17.36.46.69.84.97.37.27.64.43.78.46h.08c.52,0,.7-.34.83-1.56l.06-.65-.13-.91-.09-.63c0-.42.15-.67.38-.67.14,0,.32.09.48.26l.65.65c.43.43.87.65,1.28.65.54,0,.87-.22.87-.57,0-.31-.12-.62-.6-1.5l-.45-.84c-.52-.98-.93-1.36-1.42-1.36l-.65.06-.77.32c-.24.1-.41.15-.51.15-.12,0-.21-.11-.21-.26,0-.58.38-1.5,1.1-2.64.51-.82.87-2.57,1.04-5.09.22-3.38.67-5.58,1.15-5.58.32,0,.44.27.44.99l-.03.89-.02.62c0,.61.13,1.09.29,1.09.55,0,1.21-.83,1.74-2.17.22-.56.33-1.01.33-1.32l-.07-.3-1.29-2.4-1.3-.39c-.24-.07-.4-.18-.45-.29v-1.58l-.13-.78-.26-.65-.32-.71c-1.42.77-2.09,1.28-2.59,1.94-.51.68-.79.94-1.05.94-.17,0-.31-.16-.31-.34,0-.16.06-.51.19-1.05l.04-.36c0-1.39-.85-2.77-2.24-3.65l-.39.52-.46.65-.78.91c-.25.29-.47.73-.65,1.29-.09.27-.13.53-.13.74v.1s0,.24,0,.24c0,.54-.06.68-.3.68l-.16-.07-.45-.65-.71-.78-1.1-.71-.58-.45c-.12.25-.2.45-.26.58-.2.45-.31.8-.32,1.04l-.07,1.04-.06,1.1v.19c0,.57-.13.79-.47.79-.11,0-.44-.14-.76-.33-.29-.17-.61-.26-.94-.26-1.01,0-1.66.7-1.66,1.79,0,1.29.38,2.54,1.04,3.4l.84,1.1c.23.29.66.55.68.39l.16-1.36-.2-1.1-.04-.5c0-.42.15-.68.39-.68.37,0,.59.4.82,1.49l.51,2.4.52,3.04c.14.82.4,1.69.77,2.59.51,1.22.88,1.98,1.1,2.27.72.93.8,1.05.8,1.26,0,.16-.13.3-.28.3-.14,0-.34-.07-.58-.19-.22-.12-.48-.21-.78-.26l-.51-.07c-1.04,0-1.25.89-1.25,5.22,0,2.64.56,6.22,1.24,7.94l1.36,3.44c.22.54.32,1.09.32,1.61,0,4.72-6.26,12.14-13.15,15.56-2.56,1.27-3.38,2.48-3.56,5.31l-.06.85c1.04-.54,1.47-.72,2.2-.91,1.93-.5,2.31-.75,2.6-1.69l.25-.84c.1-.32.26-.43,1.75-1.23.51-.27.87-.56,1.04-.84.33-.55.6-.84.77-.84.16,0,.25.08.25.21l-.05.23-.64,1.85-.08.45c0,1.37.75,2.49,2.15,3.2.23-1.5.39-2.01.84-2.72l1.16-1.82c.43-.68.61-1.49.61-2.77,0-.72-.06-1.47-.16-2.02l-.04-.51c0-.33.17-.52.45-.52.23,0,.41.08.43.19l.26,1.23c.05.27.32.46.63.46.62,0,1.43-.81,2.29-2.27.31-.54.48-1.13.48-1.72l-.1-.88-.19-.97-.02-.19c0-.42.24-.72.57-.72.15,0,.27.06.29.13l.38,1.5c.13.5.48.84.84.84.44,0,1.18-.75,1.62-1.62.39-.77.59-1.65.59-2.65,0-1.38.14-1.78.65-1.78.16,0,.29.06.32.15l.26.84c.1.31.28.51.46.51.27,0,.99-.78,1.48-1.62.13-.22.2-.43.2-.6,0-.28-.19-.56-.59-.89-.68-.56-.72-.65-.72-1.49s.13-1.24.72-2.26c.31-.55.59-1.07.84-1.56.82-1.6,1.11-2.01,1.41-2.01.25,0,.47.27.47.57,0,.17-.04.35-.14.53-.17.37-.26.62-.26.77,0,.25.21.47.48.47.3,0,.69-.14,1.14-.39.17-.1.78-.33,1.81-.71l2.14-.78c.35-.13.79-.2,1.3-.2.4,0,.78.04,1.16.13.76.17,1.26.26,1.49.26.59,0,1.11-.51,1.11-1.08,0-.43-.45-1.28-1.04-1.97-.22-.26-.33-.46-.33-.59l.08-.26c.08-.16.22-.26.34-.26.44,0,1.46,1.09,2.38,2.53,5.57,8.78,7.58,10.9,11.34,12.05,3.81,1.16,4.8,2.05,4.8,4.31,0,1.24-.63,2.68-2.02,4.62-2.82,3.95-3.5,5.54-3.5,8.14v.48c.32-.14.56-.24.72-.33.53-.27.88-.42,1.03-.45l1.62-.32c.49-.1.92-.72.92-1.32v-.16s-.2-1.43-.2-1.43v-.19c-.01-.51.24-1.08.58-1.37.11-.08.22-.14.34-.14.18,0,.4.17.51.4l1.04,2.2c.43.9.92,1.33,2.26,1.94-.18-.78-.24-1.18-.24-1.56l.05-.51.19-1.04.07-.84c0-.9-.15-1.54-.46-1.94l-.78-1.04c-.25-.35-.48-.76-.64-1.24-.09-.23-.13-.42-.13-.54,0-.29.18-.48.47-.48.17,0,.24.03.83.38.25.15.47.22.63.22.38,0,.6-.63.6-1.72,0-1.25-.11-1.95-.39-2.26l-.97-1.1-.84-.71c-.2-.18-.34-.39-.34-.56,0-.28.21-.47.53-.47.29,0,.91.14,1.43.33l.3.06c.27,0,.37-.15.37-.54l-.02-.24-.2-1.36-.39-1.42c-.13-.46-.2-.53-.49-.53l-.16.02-1.61.32-.26.03c-2.12,0-4.37-1.79-5.05-4.04l-1.29-4.21c-.4-1.3-1.37-2.53-3.11-3.96-.52-.43-.97-.67-1.29-.7l-1.17-.13c-.21-.02-.35-.15-.35-.32,0-.26.25-.39.81-.39l2.14.19c.78.07,1.96.38,3.5.91,1.94.67,3.25.95,4.35.95,3.24,0,5.18-1.75,5.18-4.68Zm-36.99-17.39c1.28-.48,1.69-.7,2.2-1.16l.71-.65.07-.02c.19,0,.32.21.32.48,0,.83-.88,2.34-1.8,3.9-.67,1.14-.99,1.86-1.26,1.86-.32,0-.63-.5-.7-1.1l-.13-.78-.32-.91-.09-.52c0-.53.26-.83,1-1.1Zm-7.26-1.16v-.17c0-.36.11-.49.39-.49.17,0,.49.14.72.33l1.75,1.42,1.1.59c.3.16.47.37.47.62l-.08.41c-.16.55-.03,1.15-.04,1.38-.06,1.16-.94,1.15-1.29,1.15-.21,0-.1-.13-.61-.72l-1.43-1.62c-.44-.5-.82-1.63-.97-2.91Zm2.46,10.81c-.59-1.46-.85-2.34-.85-2.88,0-.49.38-.81.97-.81.31,0,.63.09.92.26.5.3.76.45.78.46l.75.07h.35s1.36-.07,1.36-.07l1.04-.66.6.14c.72,0,.89.21.89,1,0,1.15-.72,1.63-2.02,4.89-.57,1.43-.69,2.26-1.54,2.26-.95,0-1.67-.77-2.41-2.59l-.85-2.07Z"/>
    <path class="cls-1" d="m18.09,30.01c.42,0,1.06-.79,1.39-1.69.2-.55.29-1.02.29-1.51,0-.43-.1-.95-.29-1.46-.23-.66-.6-1.03-.98-1.03-.47,0-.72.41-.76,1.3l-.13,1.23c-.15,1.15-.16,1.27-.16,1.57,0,.93.27,1.61.65,1.61Z"/>
    <path class="cls-1" d="m26.09,45.29l-.13-1.36-.13-1.23-.13-1.43c-.01-.37-.11-.53-.32-.53-.16,0-.42.22-.59.47-1.02,1.55-1.72,2.07-2.81,2.07-3.45,0-6.07-6.08-6.07-14.11,0-.7.05-1.59.13-2.67.17-2.05.2-2.57.2-3.34,0-3.49-.73-5.94-2.21-7.42l-.91-.91-.58-.64v.56c.01.8-.18,1.76-.84,4.24-.12.46-.19.9-.19,1.18,0,.43.16.91.52,1.47.21.33.41.57.59.65l.77.39.13.91c-.03.36.04.84.19,1.43.18.64.27,1.29.27,1.93,0,.54-.05.76-.17.76-.24,0-.68-.67-1.07-1.66-.63-1.57-1.19-2.15-2.07-2.15-.71,0-1.17.12-2.02.53.21.25.33.42.39.52.05.08.24.45.59,1.1l.91,1.75c.63,1.21.99,1.9,1.1,2.07.24.38.54.69.91.91.11.06.46.26,1.04.58.32.17.53.42.53.6,0,.29-.24.5-.56.5h-.04l-.84-.13-.47-.05c-.25,0-.37.23-.37.72,0,1.75,1.4,3.78,3.83,5.54.29.22.52.52.52.7,0,.22-.23.41-.48.41-.15,0-.53-.12-.82-.26-.19-.09-.34-.14-.45-.14-.32,0-.53.26-.53.66,0,.46.37,1.38,1.17,2.91.52,1,1.3,1.76,2.2,2.13l2.91,1.24c.16.06.26.22.26.38,0,.23-.17.43-.39.46l-.59.06-.52.07-.84-.07h-.13c-.41,0-.57.08-.57.28,0,.33.36,1.13.95,2.12.69,1.16,1.3,1.82,1.67,1.82.15,0,.3-.13.4-.32l.71-1.49c.12-.26.71-.71,1.68-1.29.62-.38,1.24-.62,1.81-.71l1.16-.2c.31-.05.47-.26.47-.62v-.16s-.21-1.23-.21-1.23Z"/>
    <path class="cls-1" d="m15.73,63.37c.32.25.69.39,1.07.39,1.27,0,2.37-.59,4.11-2.2-.91-.13-1.33-.23-1.88-.46-.15-.06-.56-.23-1.23-.51-1.04-.45-1.83-.66-2.48-.66-.98,0-1.78.33-2.7,1.11l.58.45,1.29.91,1.23.97Z"/>
    <path class="cls-1" d="m52.9,54.16c0-.25.05-.49.14-.7l.45-1.1c.13-.31.2-.66.2-1.03,0-.67-.22-1.35-.65-2.01-.52-.8-.8-1.25-.84-1.36-.38-1.02-.58-1.31-.9-1.31l-.33.08-.45.26-.72.39-.84,1.04-.91.45c-.54.27-1.06,1.43-1.06,2.38,0,1.68.19,2.15,2.41,5.98.87,1.48,1.32,2.76,1.32,3.7,0,2.65-2.38,4.54-7.15,5.69l-2.98.71c-2.19.53-3.49,2.03-3.95,4.6.91-.47,1.27-.54,2.87-.54h.95s.15.01.15.01c.86,0,.98-.06,1.53-.84.64-.9,1.27-1.43,2.14-1.81l1.04-.46.84-.45.26-.07c.23,0,.36.09.36.27,0,.25-.24.68-.61,1.1-.75.83-1.04,1.53-1.04,2.51,0,.62.15.99.71,1.7.35-.81.52-1.03,1.3-1.69,1.81-1.55,2.65-2.71,2.65-3.63v-1.43c0-.83.14-1.1.57-1.1.19,0,.35.07.4.2l.32.77c.08.18.29.3.55.3s.62-.3.95-.75l.65-.9c.32-.45.47-.84.47-1.26,0-.25-.05-.5-.14-.75-.05-.12-.2-.47-.45-1.03-.15-.33-.27-.78-.27-1.01,0-.42.21-.68.58-.68.19,0,.36.07.46.2l.52.64c.11.14.3.23.49.23.24,0,.51-.23.67-.55l.52-1.04c.14-.26.21-.46.21-.58,0-.2-.21-.41-.59-.59l-.84-.39c-1.11-.51-1.95-2.29-1.95-4.15Z"/>
    <path class="cls-1" d="m39.63,65.05c.62.84.71.91,1.32.91.26,0,.58-.05.95-.14l.58-.13c1.07-.21,1.43-.36,1.43-.63,0-.16-.12-.36-.33-.54l-.71-.65-.71-.65c-.46-.42-1.36-.73-2.14-.73s-1.23.16-2.34.79c.74.47,1.5,1.14,1.95,1.75Z"/>
    <path class="cls-1" d="m63.33,64.25c0-.44-.41-.69-1.14-.69-1.75,0-2.84,1-3.52,3.24l.39-.07.59-.06.58.06.29.02c1.44,0,2.82-1.22,2.82-2.5Z"/>
    <path class="cls-1" d="m32.31,30.71c.14.75.42,1.04.98,1.04.63,0,1.03-.43,1.1-1.23l.13-1.43c.08-.95.13-1.44.13-1.48,0-.14-.07-.28-.19-.4-.09-.09-.21-.14-.33-.14h-.06s-1.04.2-1.04.2h-.84c-.12,0-.25.07-.32.19l-.13.32.32,1.56.26,1.36Z"/>
    <path class="cls-1" d="m147.87,23.08l.52,3.04c.14.82.4,1.69.78,2.59.51,1.22.88,1.98,1.1,2.27.72.93.8,1.05.8,1.26,0,.16-.13.3-.28.3-.14,0-.34-.07-.59-.19-.22-.12-.48-.21-.77-.26l-.47-.07c-1.07,0-1.29.86-1.29,5.17,0,2.68.56,6.26,1.25,7.99l1.36,3.44c.22.54.33,1.09.33,1.61,0,4.74-6.41,12.31-13.15,15.55-2.63,1.26-3.4,2.58-3.63,6.15,1.12-.54,1.57-.71,2.27-.91,1.91-.53,2.32-.81,2.59-1.69l.26-.84c.12-.36.36-.54,1.69-1.23.5-.26.86-.55,1.04-.84.34-.56.6-.83.77-.83.19,0,.28.12.28.34v.1s-.73,1.85-.73,1.85l-.08.46c0,1.36.76,2.49,2.16,3.2.09-.34.15-.6.19-.77.23-.99.45-1.64.65-1.94l1.24-1.82c.44-.66.53-1.09.53-2.76l-.07-2.04-.04-.52c0-.34.16-.52.45-.52.22,0,.41.08.43.2l.19,1.23c.05.26.31.46.63.46.63,0,1.43-.8,2.29-2.27.33-.57.46-1.02.46-1.55,0-.41-.08-1.32-.2-2.01l-.03-.38c0-.32.19-.53.49-.53.16,0,.29.05.31.12l.45,1.5c.15.5.5.84.85.84.99,0,2.02-2.04,2.13-4.21.06-1.37.23-1.84.65-1.84.16,0,.29.06.32.16l.26.84c.1.31.28.51.46.51.16,0,.49-.29.9-.77.22-.28.42-.56.58-.84.12-.23.19-.46.19-.68,0-.33-.07-.42-.58-.81-.47-.36-.71-.82-.71-1.36,0-.94.4-1.95,1.55-3.95,1.06-1.82,1.2-2.03,1.46-2.03.24,0,.43.24.43.55,0,.19-.05.39-.14.57-.17.38-.26.64-.26.78,0,.25.23.46.51.46.32,0,.72-.14,1.18-.39.28-.16.86-.4,1.75-.71,1.2-.43,1.94-.7,2.2-.78.41-.13.87-.2,1.33-.2.37,0,.75.05,1.13.13.74.17,1.24.26,1.49.26.59,0,1.05-.45,1.05-1.02,0-.26-.18-.75-.4-1.12-.33-.54-.53-.85-.58-.9-.29-.3-.4-.46-.4-.58l.07-.26c.08-.16.22-.26.36-.26.51,0,1.51,1.05,2.42,2.53,5.08,8.29,7.54,10.91,11.28,12.05,3.89,1.18,4.8,2,4.8,4.32,0,1.23-.65,2.72-2.02,4.61-2.59,3.6-3.5,5.7-3.5,8.09v.53c.32-.14.56-.24.72-.33.53-.27.88-.42,1.04-.45l1.61-.32c.51-.1.92-.71.92-1.36v-.13s-.13-1.43-.13-1.43v-.23c-.01-.8.38-1.46.86-1.46.18,0,.39.16.5.39l1.04,2.2c.42.9.91,1.33,2.27,1.94-.15-.59-.2-.87-.2-1.19l.07-.88c.16-1.21.21-1.79.21-2.52,0-.48-.14-.86-.47-1.3l-.78-1.04c-.51-.68-.71-1.19-.71-1.77,0-.37.09-.5.34-.5l.3.06s.23.13.58.33c.26.15.48.22.65.22.39,0,.59-.61.59-1.82,0-1.69-.32-2.49-1.29-3.26l-.91-.71c-.16-.13-.27-.34-.27-.53,0-.31.18-.51.48-.51.18,0,.44.05.75.13l.72.2.28.06c.22,0,.32-.17.32-.55v-.22s-.21-1.36-.21-1.36c-.21-1.41-.44-1.95-.86-1.95h-.11s-1.68.33-1.68.33l-.29.03c-2.02,0-4.41-1.92-5.03-4.04l-1.23-4.21c-.37-1.26-1.47-2.65-3.11-3.96-.54-.42-1.01-.67-1.36-.7l-1.16-.13c-.21-.02-.35-.15-.35-.32,0-.27.22-.39.7-.39,1.64,0,3.4.34,5.74,1.1,2.13.7,3.29.95,4.33.95,3.24,0,5.2-1.69,5.2-4.49,0-1.41-.51-3.17-1.23-4.3-.63-.97-1.7-1.97-3.05-2.85-.2-.13-.38-.2-.51-.2-.18,0-.33.14-.33.33l.07.84v.08c0,.32-.18.58-.41.58-.36,0-.73-.42-1.14-1.3-1.19-2.53-3.12-4.06-5.1-4.06-.43,0-.68.15-.68.42,0,.2.12.5.34.86.21.33.4.72.58,1.16.1.25.16.44.16.55,0,.12-.1.19-.3.19-.29,0-.77-.26-1.09-.61-.65-.69-.97-1.03-.97-1.04l-.84-1.3c-.65-1-1.37-1.63-2.59-2.26l-1.63-.84c-.32-.17-.61-.26-.83-.26-.2,0-.3.1-.3.3s.1.46.29.74c.34.51.6,1.05.6,1.29,0,.22-.14.39-.33.39-.45,0-1.27-.82-2.41-2.39-.82-1.13-1.24-2.37-1.24-3.64,0-2.73,2.1-4.85,4.81-4.85,1.39,0,3.13.58,4.85,1.62l3.11,1.88c1.11.67,2.62,1.17,3.56,1.17.51,0,.67-.03,1.82-.33.34-.09.62-.19.84-.32.14-.08.24-.24.24-.38,0-.25-.16-.37-.57-.39-1.44-.11-4.43-1.29-6.41-2.53-1.15-.72-1.87-1.14-2.14-1.23-.53-.19-.89-.47-.89-.69,0-.1.11-.16.28-.16l.38.07,2.82,1.03,2.72.97c1.34.47,3.41.91,4.35.91,1.23,0,2.08-.85,2.08-2.08,0-.62-.15-1.32-.41-1.8-.39-.77-.91-1.43-1.12-1.43-.25,0-.39.25-.39.69l.03.34.08.83c0,.87-.48,1.44-1.22,1.44-.29,0-.65-.07-1.06-.21l-4.21-1.35c-3.66-1.18-5.08-1.49-6.88-1.49-5.09,0-8.93,3.43-8.93,8.01,0,5.16,3.54,8.4,12.64,11.55,8.82,3.06,9.97,3.76,9.97,6.08,0,1.34-1.25,2.41-2.82,2.41-.58,0-1.09-.05-1.52-.13-.38-.08-1.85-.42-4.41-1.03-2.7-.66-5-.91-8.05-.91-6.42,0-9.52.98-12.87,4.09-.77.72-1.09.85-1.95.85l-.44-.02-1.02-.07c-.78,0-1.36.37-1.83,1.17l-1.04,1.75c-.14.24-.43.39-.74.39-.67,0-1.03-.44-1.66-2.01-.33-.83-.77-1.5-1.29-1.95l-1.36-1.17c-.2-.18-.32-.34-.32-.47s.12-.35.32-.62c.21-.26.4-.56.58-.9.2-.37.31-.63.32-.79l.06-.58c.05-.19.24-.32.46-.32.43,0,.5.29.51,1.88,0,.41.17,1,.52,1.75l.71,1.56c.1.2.32.33.59.33.68,0,1.52-1.58,1.75-3.24.19-1.38.33-1.82.62-1.82.27,0,.38.17.94,1.3.17.35.44.68.78.97.32.26.59.43.77.46h.07c.53,0,.71-.33.84-1.56l.06-.65-.13-.91-.09-.63c0-.42.15-.67.38-.67.14,0,.31.09.48.26l.65.65c.43.43.87.65,1.3.65.55,0,.9-.24.9-.64,0-.33-.07-.48-.65-1.44-.06-.09-.21-.37-.45-.84-.58-1.09-.85-1.36-1.35-1.36l-.66.06-.84.32c-.25.1-.42.15-.51.15-.11,0-.2-.11-.2-.26,0-.58.38-1.5,1.1-2.63.44-.7.82-2.44,1.1-5.09l.33-3.04c.2-1.87.4-2.53.78-2.53.14,0,.24.06.26.14l.19.97v.78c0,.95.1,1.71.22,1.71.28,0,.68-.32,1.07-.87.28-.39.5-.83.65-1.29.21-.7.33-1.27.33-1.7,0-1.5-.63-2.14-2.66-2.71-.2-.06-.34-.12-.38-.2l-.07-.58v-1.1l-.13-.78-.25-.65-.33-.71-.52.32c-1.32.83-1.64,1.08-2.08,1.62-.59.75-.79.93-1.04.93-.18,0-.32-.12-.32-.28l.26-1.11.02-.19c0-1.42-.8-2.79-2.22-3.82l-.45.52-.46.65-.77.91c-.45.53-.72,1.25-.72,1.92v.21s.01.22.01.22c0,.51-.08.69-.32.69l-.14-.06-.52-.65-.65-.78-1.17-.71-.58-.45c-.62,1.36-.65,1.5-.65,3.24v.54c0,.58-.19.94-.5.94-.15,0-.43-.11-.79-.32-.29-.17-.64-.26-.96-.26-.94,0-1.64.8-1.64,1.89,0,1.19.26,2,1.04,3.29.51.84,1.18,1.52,1.49,1.52.04,0,.12-.6.2-1.39l-.2-1.1-.04-.5c0-.42.15-.68.39-.68.36,0,.59.4.82,1.49l.52,2.4Zm8.03-4.34c.83-.3,1.72-.79,2.14-1.16l.71-.66.07-.02c.18,0,.32.21.32.49,0,.83-.76,2.13-1.68,3.69-.68,1.14-1.1,2.07-1.38,2.07-.32,0-.63-.49-.71-1.1l.08-.57-.54-1.12-.09-.52c0-.55.24-.8,1.07-1.1Zm-2.29,6.74h.34s1.43-.07,1.43-.07l.97-.66.38-.07c.71,0,1.54.71,1.54,1.46,0,.64-.86,1.02-1.2,1.92l-.72,2.92c-.53,1.38-1.2,2.07-2.04,2.07-.98,0-1.72-.78-2.43-2.59-.33-.83-.61-1.53-.84-2.07-.53-1.28-.83-2.21-.83-2.7,0-.63.36-.99.95-.99.31,0,.62.09.91.26.49.29.76.45.78.46l.76.07Zm-4.65-8.56c.17,0,.5.14.72.33l1.74,1.42,1.1.59c.31.16.49.44.49.76l-.04.27-.32,1.17-.2,1.3c-.02.15-.16.26-.34.26h-.05c-.27-.09-.96-.38-1.41-.9l-.98-1.64c-.15-.16-.53-.78-.85-1.81-.11-.37-.2-.74-.25-1.1v-.19c-.01-.33.1-.47.38-.47Z"/>
    <path class="cls-1" d="m138.95,30.01c.43,0,1.1-.8,1.41-1.69.18-.55.33-1.31.33-1.75,0-.31-.08-.6-.33-1.23-.29-.71-.59-1.04-.95-1.04-.56,0-.81.71-.93,2.53l-.07,1.04-.02.63c0,1.05.16,1.51.56,1.51Z"/>
    <path class="cls-1" d="m134.46,31.37c.36.18.6.41.6.6,0,.3-.24.5-.59.5-.14,0-.56-.06-.91-.13l-.48-.05c-.25,0-.36.23-.36.74,0,1.72,1.47,3.81,3.89,5.52.32.24.52.48.52.67,0,.1-.07.21-.2.31-.11.08-.24.13-.35.13-.14,0-.44-.11-.76-.26-.19-.1-.35-.15-.48-.15-.31,0-.51.3-.51.76,0,.59.44,1.63,1.18,2.82.69,1.08,1.43,1.84,2.13,2.13l2.92,1.24c.16.06.26.21.26.36,0,.23-.16.43-.39.48l-.52.06-.58.07-.78-.07h-.13c-.4,0-.56.08-.56.29,0,.31.29.97.95,2.11.72,1.24,1.22,1.82,1.6,1.82.16,0,.32-.13.41-.32l.71-1.49c.09-.2.68-.65,1.68-1.29.61-.39,1.23-.64,1.81-.71,1.55-.21,1.69-.28,1.69-.93,0-.22-.07-.65-.2-1.27-.07-.33-.13-.79-.2-1.36l-.12-1.23-.13-1.43c-.02-.36-.12-.53-.32-.53-.14,0-.35.2-.52.47-.77,1.24-1.89,2.08-2.79,2.08-3.62,0-6.08-5.77-6.08-14.24l.07-2.55.19-3.04.03-1.08c0-2.61-.91-5.31-2.23-6.63l-.91-.91-.58-.64v.56c0,.6-.17,1.69-.45,2.74-.24.92-.38,1.42-.39,1.5-.09.37-.13.77-.13,1.17,0,.91.44,1.77,1.1,2.12l.72.39.13.91c-.04.36.03.84.19,1.43.18.64.27,1.3.27,1.94,0,.54-.05.75-.17.75-.25,0-.68-.67-1.07-1.66-.62-1.57-1.18-2.15-2.07-2.15-.71,0-1.17.12-2.01.53.68.87,1.09,1.61,1.88,3.37,1.03,2.3,1.43,2.76,3.04,3.57Z"/>
    <path class="cls-1" d="m136.6,63.37c.31.25.7.39,1.09.39,1.27,0,2.34-.58,4.09-2.2-1.36-.23-1.57-.3-3.11-.97-1.06-.47-1.75-.66-2.43-.66-1.02,0-1.81.32-2.75,1.11l.58.45,1.3.91,1.24.97Z"/>
    <path class="cls-1" d="m173.78,54.3c0-.2.07-.48.19-.84l.39-1.1c.13-.36.19-.73.19-1.08,0-.64-.2-1.25-.65-1.97-.45-.73-.71-1.18-.78-1.36-.37-.97-.6-1.28-.92-1.28-.23,0-.45.08-.83.31l-.65.39-.91,1.04-.91.45c-.54.27-1.06,1.45-1.06,2.42,0,1.4.31,2.16,2.42,5.94.9,1.6,1.32,2.78,1.32,3.69,0,2.64-2.69,4.81-7.08,5.7-5.25,1.08-6.39,1.94-7,5.32.91-.47,1.27-.54,2.87-.54h.95s.15.01.15.01c.87,0,.98-.06,1.54-.84.63-.9,1.27-1.43,2.14-1.81l1.04-.46.84-.45.26-.07c.23,0,.36.09.36.27,0,.22-.21.59-.62,1.09-.63.76-.99,1.54-.99,2.14,0,.87.14,1.3.67,2.08.36-.81.53-1.03,1.3-1.69,1.81-1.55,2.65-2.71,2.65-3.63v-1.43c0-.83.14-1.1.57-1.1.19,0,.35.07.4.2l.32.77c.07.18.29.29.55.29.46,0,.79-.33,1.59-1.65.34-.56.47-.92.47-1.28,0-.23-.05-.48-.15-.73-.05-.12-.2-.46-.45-1.03-.15-.33-.27-.78-.27-1.01,0-.42.22-.68.58-.68.2,0,.37.07.47.2l.51.64c.12.14.15.23.34.23.24,0,.66-.23.83-.55l.52-1.04c.13-.26.2-.46.2-.59,0-.22-.21-.44-.52-.58l-.91-.39c-1.06-.45-1.94-2.28-1.94-4.01Z"/>
    <path class="cls-1" d="m160.5,65.05c.62.84.71.91,1.32.91.25,0,.58-.05.94-.14l.58-.13c1.1-.21,1.44-.37,1.44-.66,0-.18-.1-.36-.27-.5l-.78-.65-.71-.65c-.44-.4-1.35-.72-2.04-.72-.8,0-1.46.21-2.43.79.75.47,1.5,1.14,1.94,1.75Z"/>
    <path class="cls-1" d="m183.96,64.98c.17-.28.25-.53.25-.73,0-.44-.4-.69-1.11-.69-1.78,0-2.87.99-3.56,3.24l.39-.07.65-.06.52.06.35.02c.66,0,1-.07,1.27-.28.4-.3.81-.79,1.23-1.49Z"/>
    <path class="cls-1" d="m152.6,27.8l.32,1.56.26,1.36c.15.75.27,1.04.83,1.04.64,0,1.18-.43,1.25-1.23l.13-1.43c.09-.95.13-1.44.13-1.48,0-.14-.07-.28-.19-.4-.1-.09-.22-.14-.33-.14h-.06s-1.03.2-1.03.2h-.78c-.12,0-.24.07-.32.19-.13.18-.2.3-.2.32Z"/>
    <path class="cls-1" d="m72.5,157.69c0-2.21-1.05-4.46-2.95-6.28-.52-.51-1.08-.83-1.62-.97h-.12s-.33.1-.33.1l.13.94.25.65.07.27c0,.14-.13.25-.31.25-.19,0-.37-.1-.48-.26l-1.16-1.75c-.92-1.38-2.95-2.54-4.45-2.54-.53,0-.87.24-.87.61,0,.18.18.52.39.76.33.37.59.82.59,1.03l-.07.26c-.07.15-.16.25-.26.26h-.06c-.31,0-.47-.14-1.88-1.74-1.15-1.32-3.51-2.6-4.77-2.6-.18,0-.35.08-.48.21-.08.08-.13.18-.13.25,0,.2.17.46.46.72.4.37.72.81.72.99,0,.13-.17.24-.36.24-.37,0-1.2-.54-2.75-1.75-2.42-1.9-3.5-3.69-3.5-5.77,0-2.51,1.79-4.47,4.08-4.47,1.34,0,3.12.65,4.34,1.56l3.17,2.39c1.45,1.11,3.23,1.69,5.1,1.69.41,0,.79-.09,1.12-.26.28-.14.46-.31.46-.43,0-.08-.24-.19-.59-.28-1.15-.27-2.07-.67-2.72-1.16l-3.24-2.46c-1.2-.91-2.04-1.5-2.53-1.75-1.71-.9-2.04-1.11-2.04-1.31,0-.1.16-.19.37-.19.17,0,.37.04.57.13l1.69.72c.54.23,1.45.77,2.72,1.62,3.47,2.32,5.23,3.06,7.27,3.06s3.37-1.37,3.37-3.24c0-.37-.09-.77-.27-1.12l-.32-.64c-.11-.23-.32-.4-.39-.33l-.19.26-.19,1.36c0,.05-.08.21-.2.45-.12.25-.28.48-.45.65-.35.35-.65.46-1.19.46-1,0-2.13-.54-5.16-2.47-3.07-1.95-5.84-2.97-8.03-2.97-4.66,0-8.42,3.75-8.42,8.4,0,6.49,3.96,9.42,16.38,12.13,4.73,1.03,6.81,2.41,6.81,4.52,0,1.92-1.55,3.13-4.01,3.13-.74,0-1.33-.04-1.75-.13-.42-.09-2.64-.69-6.68-1.82-2.78-.77-5.9-1.21-8.65-1.21-4.88,0-8.16,1.45-10.4,4.58-.26.37-.52.59-.69.59-.13,0-.33-.09-.54-.26l-.9-.71c-.64-.5-1.65-.89-2.33-.89-.49,0-.96.2-1.37.57-.32.29-.56.45-.66.45-.36,0-1.03-.81-1.54-1.87-.73-1.52-1.11-3.03-1.11-4.41,0-.65.2-1.1.49-1.1.22,0,.39.17.49.52l.52,1.88c.29,1.05.88,1.88,1.32,1.88.2,0,.55-.28.94-.78.24-.3.41-.6.52-.91.41-1.19.5-1.36.82-1.36.38,0,.57.23.83,1.42.05.22.12.55.42,1.11.26.49.52.89.78,1.16.19.21.44.33.67.33.57,0,1.09-.95,1.09-2v-.28s-.09-1.2-.09-1.2c0-.47.07-.61.33-.61.15,0,.27.08.45.32.28.36.65.67,1.1.91.39.22.71.33.92.33.19,0,.41-.12.63-.33.18-.16.27-.35.27-.51,0-.19-.23-.49-.92-1.17-.37-.37-.81-1.26-1.3-2.59-.18-.51-.43-.85-.61-.85-.05,0-.2.05-.43.14l-.84.32-.58.26-.22.05c-.28,0-.5-.2-.5-.44s.59-.95,1.3-1.54c.51-.43.82-1.07.84-1.75.04-1.09.24-1.95.45-1.95l.2-2.27c.09-1.14.56-3.29.97-4.46.08-.24.18-.4.26-.4.18,0,.34.49.34,1.03l-.02.34-.04.66c0,.82.13,1.25.39,1.25.28,0,.6-.41.88-1.12l.58-1.49c.17-.44.26-.85.26-1.21,0-1.26-.75-2.17-1.8-2.17l-.47.08c-.25.09-.4.13-.46.13-.34,0-.63-.38-.63-.82l.05-.93-.06-1.3-.26-1.36-.07-.65-.58.32-.72.58-1.03.84-.84.71c-.15.13-.32.2-.48.2-.49,0-.56-.13-.56-1.14v-.25c0-.82-.35-1.45-1.68-3.01-.08-.09-.18-.21-.33-.39l-.25.46-.71,1.16-.71,1.81-.13,1.16c-.03.33-.16.59-.29.59s-.36-.17-.61-.46c-.99-1.13-1.3-1.34-2.79-1.87l-.13.45c-.24.77-.37,1.22-.39,1.37l-.07,1.23v.93c0,.36-.13.57-.35.57h-.04s-.15-.13-.39-.33c-.15-.14-.43-.2-.78-.2-1.2,0-1.97.65-1.97,1.69,0,.78.26,1.35,1.46,3.17.53.81,1.14,1.44,1.38,1.44.16,0,.29-.43.29-.92l-.12-.78c-.12-.37-.18-.71-.18-.99,0-.36.1-.56.3-.56.58,0,1.18,1.68,1.44,4.02l.25,2.4c.1.85.36,1.73.78,2.59.59,1.21,1.17,2.03,1.68,2.39.62.44,1,.87,1,1.11,0,.2-.16.39-.34.39-.02,0-.46-.16-1.31-.46l-.54-.08c-1.29,0-1.73.74-1.73,2.97,0,2.7,1.82,6.57,3.83,8.19l2.98,2.4c1.51,1.21,2.66,3.23,2.66,4.67,0,1.89-2.08,3.76-5.63,5.05l-2.14.77c-1.66.61-2.33,1.68-2.98,4.79.85-.26,1.22-.33,1.79-.33h.29s.96.03.96.03c.87,0,1.5-.52,1.5-1.25v-.58c0-.18.24-.41.58-.59.58-.28.88-.43.9-.45l.72-.58c.11-.09.24-.15.36-.15.19,0,.35.19.35.4,0,.16-.05.36-.13.58-.22.57-.34,1.35-.34,2.23,0,1.59.25,2.44,1.06,3.6.07-.43.14-.71.19-.84.13-.33.5-.91,1.1-1.75.98-1.37,1.7-3.04,1.7-3.94l-.02-.27-.19-1.49c0-.27.12-.52.32-.71.14-.12.3-.19.44-.19.28,0,.45.16.66.64.15.36.34.58.46.58.23,0,.67-.59.96-1.29.22-.51.33-.98.33-1.37,0-.24-.07-.52-.19-.83-.13-.32-.21-.58-.21-.74s.05-.25.27-.43c.11-.08.22-.13.33-.13.12,0,.26.05.38.13l.58.39c.2.13.37.2.52.2.26,0,.63-.29.91-.72.56-.86.92-1.58.92-1.84,0-.17-.11-.3-.47-.55-1.29-.91-2.14-2.29-2.14-3.47,0-.27.06-.58.19-.94l.65-1.75c.33-.88.5-1.34.52-1.36l.19-.07c.22,0,.35.18.35.5,0,.21-.05.46-.15.74-.16.43-.27.94-.27,1.23,0,.47.24.72.68.72.32,0,.69-.09,1.08-.26,1.96-.85,3.51-1.3,4.45-1.3.88,0,1.43.19,2.35.85.24.17.45.26.6.26.11,0,.25-.1.38-.26.08-.11.13-.22.13-.32,0-.23-.14-.54-.39-.84-.33-.41-.46-.66-.46-.92,0-.21.14-.33.35-.33,1.02,0,2.61,3.22,4.13,8.31,1.19,4.02,1.53,4.43,5.37,6.61,3.25,1.84,4.49,3.66,4.49,6.61s-.81,6.64-2.48,11.52c-.53,1.55-.76,2.59-.76,3.45,0,.68.13,1.35.64,3.09.23.83.38,1.33.45,1.49.07.19.25.51.52.97l.39-.78.91-.97c.77-.82,1.18-1.98,1.18-3.35,0-.67-.12-1.39-.34-2.09-.16-.52-.27-.96-.27-1.14,0-.41.31-.8.62-.8.13,0,.3.11.49.33l.97,1.1c.6.68.81.81,1.56.97l.07-.91.06-1.06c0-1.55-.57-3.28-1.43-4.38-.51-.66-.75-1.06-.75-1.29s.17-.46.35-.46c.06,0,.16.05.27.13.62.47.95.66,1.12.66.31,0,.6-.78.6-1.64,0-1.23-.51-2.64-1.32-3.62-.42-.5-.68-.82-.78-.97-.09-.12-.13-.25-.13-.37,0-.28.23-.48.56-.48.24,0,.39.06.8.33.19.12.37.19.5.19.5,0,.69-.71.69-2.63l-.02-.8-.07-1.17c-.07-1.37-.19-1.61-.77-1.61h-.52c-3.16,0-4.63-2-5.45-7.39-.59-3.89-2.04-6.66-3.82-7.26-1.06-.35-1.45-.59-1.45-.87,0-.18.3-.36.62-.36.23,0,.78.14,1.22.33,2.58,1.04,4.76,1.55,6.66,1.55,3.1,0,5.55-2.28,5.55-5.18Zm-36.57-18.27c.66-.12,1.1-.24,1.3-.38.62-.44.97-.68,1.04-.72l.11-.02c.17,0,.3.12.3.32l-.02.09-.45,1.11-1.42,1.54-.85,1.5c-.2.23-.31.35-.32.36h-.06c-.34,0-.69-.78-.72-1.59l-.12-1.29c.1-.53.42-.77,1.23-.91Zm-6.99.32l-.32-.97-.07-.29c0-.1.12-.18.27-.18.15,0,.51.18.77.39.29.23.47.21.91.33,1.77.46,2.14.78,2.14,1.63l-.07,1.08-.26.98c-.11.42-.22.56-.41.56-.14,0-1.26-.81-1.4-1.01l-.64-.91-.91-1.62Zm1.49,8.23c-.3-.58-.49-1.28-.49-1.8,0-.82.36-1.25,1.05-1.25.28,0,.55.07.74.2l.58.39c.51.33,1.09.52,1.65.52.4,0,.79-.09,1.14-.26l1.04-.52c.18-.09.35-.14.49-.14.51,0,.88.37.88,1.05,0,.74-.58,1.73-1.37,3.16-.86,1.55-1.5,2.6-2.16,2.6-.93,0-2.25-1.48-3.54-3.96Z"/>
    <path class="cls-1" d="m55.95,176.73c-.07-1.82-.17-3.02-.32-3.56-.04-.12-.43-1.05-1.17-2.78-.29-.69-.55-1.46-.78-2.33-.15-.6-.34-.78-.81-.78-1.76,0-3.09,1.5-3.09,3.49,0,1.17.49,3.01,1.37,5.26,1.25,3.14,1.58,4.27,1.58,5.38,0,2.38-.95,3.41-4.23,4.59-3.71,1.33-5.45,3.24-6.09,6.67.29-.11.5-.2.65-.26.41-.17.72-.27.9-.33l1.04-.26c.89-.22,1.6-.72,1.75-1.23l.26-.9c.06-.22.19-.37.39-.45l.58-.26.58-.26.13.26-.26.84c-.09.28-.13.78-.13,1.51,0,1.42.28,2.25,1.1,3.28.38-.9.51-1.11,1.23-2.21,1.05-1.58,1.43-2.42,1.43-3.17v-1.04c0-.97.18-1.43.56-1.43.14,0,.27.07.34.2l.33.52c.1.17.27.26.45.26.19,0,.54-.25.73-.54.47-.71.76-1.61.76-2.31l-.07-.71-.06-.73c0-.39.16-.56.53-.56.25,0,.36.1.57.58.14.31.33.52.49.52.18,0,.38-.14.54-.39l.52-.78.39-.59.1-.31c0-.18-.14-.34-.49-.59-1.2-.86-1.72-2.19-1.81-4.6Z"/>
    <path class="cls-1" d="m27.19,159.11c0-.81-.21-1.37-.51-1.37-.12,0-.32.2-.53.52-.53.82-1.44,1.37-2.27,1.37-2.24,0-4.94-3.51-6.28-8.17-.31-1.08-.48-2.31-.48-3.5s.16-2.59.48-3.96c.43-1.9.67-2.96.71-3.17l.08-.88c0-1.61-1.48-3.67-3.77-5.28.08.36.13.6.13.73,0,.2-.09.76-.26,1.67l-.11,1.31c0,1.16.21,2.39.57,3.41.33.93.42,1.23.42,1.48l-.02.27c-.06.27-.16.46-.25.46-.13,0-.36-.14-.66-.41-.74-.64-1.55-.98-2.39-.98-.27,0-.65.05-1.1.13l.32.71.97,2.4,1.36,2.07,1.42.98c.14.09.27.22.39.38.13.18.2.33.2.43,0,.12-.11.21-.26.22l-1.3.06c-.2,0-.36.13-.36.27,0,.22.19.87.55,1.93l.65,1.88,1.1,1.03,1.16.85c.34.25.55.53.55.73,0,.18-.11.36-.23.37l-.65.06c-.21.02-.33.21-.33.52,0,.48.45,1.36,1.3,2.52,1,1.37,1.71,1.82,2.85,1.82h.97c.46,0,.75.23.75.59,0,.3-.19.48-.62.57-.9.19-1.17.37-1.17.78,0,.17.12.41.33.71l.52.71c.43.59.91.98,1.23.98.18,0,.58-.18.95-.6.58-.67,1.24-1.21,2.1-1.42,2.25-.57,2.72-.81,2.72-1.33,0-.18-.09-.44-.26-.74-.72-1.28-.97-2.12-.97-3.17Z"/>
    <path class="cls-1" d="m18.94,149.27c.1,0,.24-.12.35-.32l.71-1.3c.12-.22.23-.44.46-.79.26-.38.45-.76.45-.96,0-.77-.71-1.72-1.63-2.2-.48.9-.91,2.93-.91,4.22,0,.76.25,1.35.57,1.35Z"/>
    <path class="cls-1" d="m29.32,175.18c.56,0,1.74-.32,2.41-.66.28-.14.45-.32.45-.45,0-.09-.23-.35-.65-.72l-.71-.65c-.54-.49-1.34-.94-1.72-.94-.74,0-1.51.33-2.68,1.14.15.14.25.25.32.32.28.28.46.45.52.51,1.26,1.31,1.45,1.44,2.06,1.44Z"/>
    <path class="cls-1" d="m43.77,185.92c.2.08.55.13,1.03.13.3,0,.57-.05.79-.13l1.37-.52,1.29-.45c.35-.12.59-.32.59-.5,0-.09-.29-.23-.72-.34-.29-.07-.62-.18-.97-.32-1.59-.65-1.83-.73-2.39-.73-1.27,0-2.55.62-3.31,1.58.69.29.94.41,1.3.65.58.38.92.6,1.03.64Z"/>
    <path class="cls-1" d="m63.13,190.9c-.08,0-.23.07-.44.21-.47.3-.79.5-.97.58l-1.88.84c-1.25.56-2.36,2.23-2.36,3.55,0,.44.09.82.35,1.57.43-1.04.73-1.22,2.2-1.3,1.66-.09,3.25-3.07,3.25-5.09,0-.2-.07-.37-.15-.37Z"/>
    <path class="cls-1" d="m33.84,150.96c.42,0,.72-.8.93-2.09l.19-.97.02-.19c0-.4-.12-.54-.45-.54h-.15s-.78.14-.78.14l-.72-.13h-.11c-.41,0-.62.23-.62.69,0,.66.51,1.86,1.18,2.81.12.17.31.27.5.27Z"/>
    <path class="cls-1" d="m139.32,177.57l-4.14,1.23c-2.58.77-3.85,2.47-4.21,5.63.66-.53.87-.61,1.88-.77l1.22-.19c.52-.09.89-.2,1.1-.33.12-.07.35-.31.72-.72l1.1-1.23c.42-.47.79-.73,1.02-.73.15,0,.28.17.28.37,0,.24-.16.62-.46,1.07-.3.48-.47,1.06-.47,1.67,0,.83.22,1.35,1.06,2.54.11-.39.19-.65.26-.78.11-.21.43-.66.97-1.36.9-1.16,1.54-2.37,1.55-2.92.02-1,.11-1.33.36-1.33.22,0,.26.05.35.62.02.14.09.28.19.39.15.16.3.26.39.26.08,0,.26-.09.52-.26.45-.3.79-.61,1.03-.91.27-.34.48-.73.65-1.17.22-.57.33-.98.33-1.23v-.84c0-.22.08-.4.21-.4.15,0,.48.34.7.72.14.25.23.33.42.33h.04c.23-.03.44-.12.58-.26.79-.77,1.3-1.72,1.3-2.43l-.07-1.19-.26-.98v-.08c-.01-.2.14-.37.3-.37.29,0,.61.42,1.06,1.37.21.45.4.66.59.66.31,0,.55-.23,1.16-1.11l.58-.84c.13-.19.19-.41.19-.65,0-.22-.07-.45-.19-.64l-.52-.78c-.08-.13-.13-.36-.13-.65,0-.88.32-1.88.97-3.04.48-.85.76-1.39.84-1.62.1-.27.21-.39.36-.39.11,0,.22.16.22.33l-.06.72v1.03c.09.24.24.33.56.33.2,0,.42-.05.67-.13l1.62-.58c.39-.14.88-.38,1.49-.72,2.54-1.41,3.32-1.7,4.57-1.7.75,0,1.71.29,3.07.92.28.13.51.2.67.2.19,0,.39-.12.57-.33.13-.15.19-.33.19-.49,0-.24-.09-.52-.26-.8-.21-.36-.4-.81-.4-.97,0-.18.11-.28.3-.28.15,0,.37.16.49.34.19.31.69,1.17,1.49,2.59,1.21,2.15,2.78,3.64,4.15,3.95l2.85.65c.88.2,1.11.54,1.11,1.64,0,2.01-.95,3.78-2.59,4.83l-2.33,1.5c-.85.54-1.56,2.03-1.56,3.27,0,.8.19,2.21.45,3.34l.45-.45,1.1-.65.97-.97.52-1.43.52-1.3c.25-.63.55-1.04.75-1.04.23,0,.35.35.35.99v.18s0,.24,0,.24c0,.93.13,1.34.85,2.74l.26-.71.26-.91c.05-.16.29-.53.71-1.09.66-.87.99-1.95.99-3.22,0-.4-.1-.77-.34-1.25-.13-.25-.2-.46-.2-.6,0-.09.05-.19.14-.3.08-.11.17-.18.26-.19h.04c.17,0,.45.18.67.45.28.33.52.52.66.52.29,0,.6-.49.77-1.23.09-.39.13-.61.13-.65,0-.31-.26-1.13-.58-1.81-.13-.26-.19-.48-.19-.66,0-.23.15-.42.36-.42.19,0,.5.2.86.55.18.17.35.26.49.26.4,0,.7-.41,1-1.43.19-.63.26-.91.26-1.01,0-.19-.08-.3-.23-.3l-.23.02-.77.08c-1.18,0-2.85-.82-3.64-1.76l-1.81-2.2c-.7-.85-1.68-2.14-1.62-2.14l-1.49-.97c-.24-.16-.39-.36-.39-.53,0-.24.24-.41.62-.41.34,0,1.4.38,3.34,1.19,1.87.79,4.8,1.43,6.57,1.43,3.1,0,5.65-2.51,5.65-5.55,0-1.66-.74-3.2-2.56-5.34-.34-.4-.93-.8-1.2-.8-.21,0-.36.16-.36.38,0,.18.07.43.2.73.08.2.13.41.13.59,0,.3-.11.47-.31.47-.41,0-.83-.67-1.18-1.83-.43-1.45-1.27-2.31-3.24-3.3-.75-.39-1.73-.73-2.05-.73-.13,0-.21.11-.21.28,0,.24.09.51.26.77.29.44.47.86.52,1.24v.06c0,.25-.13.39-.36.39-.42,0-.51-.11-1.46-1.56-.49-.74-1.79-1.73-2.92-2.2-.35-.15-.73-.24-1.1-.26h-.04c-.23,0-.42.11-.42.25,0,.05.1.26.29.59l.1.37c0,.2-.13.35-.31.35-.39,0-1.59-.99-2.54-2.08-1.03-1.19-1.69-2.69-1.69-3.88,0-2.48,2.37-4.68,5.02-4.68.67,0,1.23.12,1.66.33l2.26,1.16,2.66,1.75c1.53,1,3.62,1.75,4.89,1.75.47,0,.83-.07,2.04-.4.64-.17,1.03-.42,1.03-.66l-.03-.05-.22-.13-1.43-.12c-.79-.08-2.59-.89-4.01-1.82l-2.98-1.94-2.65-1.11c-.2-.08-.33-.21-.33-.34s.14-.25.3-.25c0,0,.25.05.74.13l2.46.72c.62.18,1.62.63,2.98,1.36,2.7,1.44,4.46,2.07,5.76,2.07,1.5,0,2.6-1.03,2.6-2.42,0-.47-.1-1.23-.25-1.85-.08-.3-.21-.59-.39-.84-.11-.16-.23-.25-.32-.25-.19,0-.29.2-.29.53l.03.44.03.38c0,1.2-.47,1.62-1.79,1.62-1.08,0-2.52-.43-5.82-1.74-3.09-1.21-5.02-1.68-6.93-1.68-4.88,0-9.15,3.98-9.15,8.52,0,3.92,2.6,6.92,7.92,9.1l5.5,2.27c4.56,1.87,6.23,3.22,6.23,4.99,0,1.48-1.38,2.43-3.52,2.43-.92,0-2.08-.25-4.2-.93-5.15-1.64-8.5-2.32-11.45-2.32-4.81,0-8.23,1.31-10.96,4.2-.36.38-.57.5-.89.5-.22,0-.44-.09-.92-.37-.49-.29-1.03-.47-1.42-.47-.47,0-1.21.41-1.56.86l-.65.84c-.19.25-.4.39-.57.39-.47,0-1.3-.8-1.82-1.75-.32-.58-.54-1.15-.65-1.69-.08-.41-.13-1.07-.13-1.78l.07-1.2.2-1.29c.09-.62.16-.99.2-1.1.05-.16.17-.26.31-.26.34,0,.48.31.48,1.01l-.02.41v.29c-.01,1.84.72,3.53,1.52,3.53.63,0,1.19-1.13,1.65-3.37.09-.45.27-.71.49-.71.26,0,.42.33.61,1.3.12.63.53,1.5.97,2.07.25.33.52.52.74.52.53,0,.87-.8,1.14-2.66.11-.72.32-1.17.57-1.17.11,0,.2.05.27.14.05.05.2.29.46.71.16.27.4.48.71.65.32.17.58.26.75.26.21,0,.42-.1.61-.26.29-.26.45-.45.45-.53,0-.09-.13-.3-.39-.57-.43-.46-.75-1.07-1.16-2.14-.27-.71-.46-1.2-.58-1.49-.1-.24-.21-.39-.33-.45l-.21-.05-.38.05c-.07.02-.53.15-1.36.38l-.42.07c-.18,0-.3-.12-.3-.31,0-.17.23-.49.53-.72,1.64-1.3,2.61-3.49,2.98-6.67.22-1.93.47-2.67,1.29-3.82.17-.24.32-.39.41-.39.25,0,.39.2.39.57,0,.25-.07.56-.21.92-.09.25-.14.52-.14.79v.25s.14.39.14.39l.71-.26.77-.9c.46-.54.85-1.76.85-2.65,0-.62-.15-1.05-.52-1.49-.41-.49-.69-.68-.99-.68l-.44.03-.46.03c-.42,0-.63-.13-.63-.38l.11-.49.07-.71-.39-1.62-.32-.78-.2-.65-.45.32-.97.58c-.25.15-.51.39-.78.71-.92,1.12-.98,1.17-1.35,1.17-.23,0-.37-.08-.37-.25l.04-.27c.13-.59.19-1.04.19-1.34,0-1.13-.82-2.83-1.81-3.77-1.35,1.29-2.08,2.72-2.08,4.08v.78c0,.3-.1.45-.3.45h-.02c-.16-.02-.32-.15-.46-.33l-.77-1.03c-.06-.08-.4-.36-1.04-.84-.12-.09-.3-.24-.52-.45l-.26.51c-.64,1.28-.86,2.05-.9,3.11-.03.86-.1,1.12-.3,1.12-.1,0-.24-.05-.41-.15-.98-.55-1.07-.59-1.5-.59-1.16,0-1.96.83-1.96,2.06,0,.48.27,1.2.81,2.16.59,1.06,1.49,2.03,1.87,2.03.11,0,.14-.08.14-.4v-.13s-.06-1.1-.06-1.1l-.13-.85v-.11c0-.25.09-.36.29-.36.59,0,1.1,1.72,1.53,5.14.38,3.01,1.21,5.09,2.52,6.29.33.31.53.56.53.7,0,.11-.11.21-.26.21-.19,0-.48-.12-.85-.33-.24-.14-.47-.21-.7-.21-.65,0-1.37.76-1.5,1.57l-.58,3.69-.45,5.19c-.09.98.05,2.3.39,3.88.3,1.4.46,2.43.46,3.07,0,3.88-2.42,6.96-6.42,8.14Zm13.54-37.19c0-.43.23-.65.57-.72l1.38-.38,1.42-.72c.41-.2.54-.26.61-.26.16,0,.3.17.3.38,0,.09-.05.23-.14.41l-.65,1.09-1.49,1.5c-.53.7-.53,1.31-.65,1.43-.1.09-.25.16-.46.19h-.1c-.38,0-.66-.26-.68-.65l-.06-1.1-.07-1.11v-.07Zm-5.67-2.25c0-.16.1-.25.28-.25l.15.05.91.58c.52.33.95.57,1.29.71,1,.41,1.36.56,1.36.94,0,.14-.04.48-.13.74-.1.29-.16.6-.19.91-.09.88-.63,1.1-.98,1.1-.44,0-.89-.68-1.62-1.94-.32-.58-.78-1.73-1.03-2.59l-.04-.25Zm1.01,7.5c0-.68.36-1.16.87-1.16.21,0,.47-.05.75.12l.97.72c.24.14.54.22.87.22.39,0,.98-.16,1.53-.41l.84-.38c.19-.09.37-.14.5-.14.52,0,.93.55.93,1.24,0,.96-.69,1.94-1.69,3.37l-.71,1.5c-.57.81-.94,1.1-1.4,1.1-.77,0-1.14-.44-2.29-2.73-.83-1.64-1.17-2.64-1.17-3.43Z"/>
    <path class="cls-1" d="m165.43,167.29c-.23,0-.47.07-.78.25-.24.13-.41.19-.49.19-.12,0-.27-.1-.42-.26l-.45-.51-.32-.52c-.13-.2-.33-.33-.54-.33-.03,0-.2.04-.5.13l-.58.06c-.67.03-.92.27-.92.91l.02.38v.29c0,.57-.49,1.44-1.17,2.04l-1.23,1.1c-1.52,1.35-2.7,3.52-2.7,4.96,0,.62.2,1.62.56,2.81.58,1.94.79,2.86.79,3.49,0,3.11-4.75,7.21-13.55,11.67-4.46,2.26-5.58,3.61-5.58,6.69l.08,1.15c.79-.73.92-.79,3.11-1.24,1.77-.36,2.6-1.16,2.98-2.91.28-1.29.46-1.53,1.62-2.2.37-.22.66-.44.84-.65.15-.16.26-.25.32-.25.13,0,.23.13.23.29,0,.22-.15.59-.42,1.08-.18.3-.27.69-.27,1.23,0,1.04.22,1.75.78,2.59.39-.86.61-1.1,1.62-1.82,1.29-.9,1.77-1.95,2.01-4.28.1-.98.29-1.5.55-1.5.12,0,.23.08.29.2l.45.97c.06.13.22.21.41.21s.53-.2.82-.48l.91-.83c.39-.36.64-1.25.77-2.72.06-.54.24-.91.46-.91.14,0,.27.13.32.32l.39,1.3c.09.31.28.52.46.52.08,0,.26-.11.51-.33.35-.3.66-.62.91-.97.3-.4.46-.86.46-1.29v-1.1c0-.24.09-.5.26-.71.12-.16.23-.27.28-.27.14,0,.29.13.37.33l.26.71c.11.32.36.53.61.53.34,0,.69-.29,1.2-1.04.15-.22.28-.38.39-.52.29-.35.45-.64.45-.82,0-.09-.09-.25-.26-.48-.94-1.22-1.43-2.71-1.43-4.4,0-2.16.82-3.97,3.3-7.33,1.49-2.01,2.33-3.89,2.33-5.19,0-.38-.17-.56-.51-.56Z"/>
    <path class="cls-1" d="m132.97,147.71c1.15,1.04,1.26,1.18,1.26,1.55,0,.29-.2.52-.45.52l-.43-.07-.25-.03c-.35,0-.68.65-.68,1.37,0,.41.17,1.07.41,1.63.16.38.32.65.45.78l.65.65c.17.16.26.4.26.66,0,.32-.18.58-.39.58-.13,0-.33-.08-.58-.21-.16-.08-.32-.13-.45-.13-.29,0-.43.18-.43.53l.1.96.39,1.68c.09.38.33.8.71,1.24.33.37.67.64.97.78.82.35,1.25.55,1.3.58.12.09.19.28.19.52s-.19.45-.43.45c-.07,0-.3-.05-.67-.13l-.66-.06c-.66,0-.7.04-.7.54,0,.33.04.67.13,1.01l.26,1.04c.28,1.1.63,1.69,1.02,1.69.08,0,.25-.1.47-.26.94-.72,2.82-1.36,4-1.36s2.6.15,3.13.32c.3.1.51.16.62.16.16,0,.21-.16.22-.74l.13-1.17.26-2.01.19-1.49v-.84c-.24.19-.41.35-.52.45-1.1,1.03-1.79,1.36-2.93,1.36-2.98,0-4.69-3.35-4.69-9.19,0-2.41.35-5.82,1.02-9.73.14-.82.2-1.39.2-1.8,0-2.13-1.35-4.21-3.7-5.72v1.61c0,.34-.02.59-.13,1.05-.21.9-.26,1.21-.26,1.46,0,1.24.17,1.85.9,3.13.41.71.67,1.56.67,2.18,0,.26-.11.41-.28.41-.11,0-.23-.07-.32-.19l-.52-.72c-.41-.57-.8-.72-1.86-.72l-1.12.07c.45,1.11.59,1.53.78,2.27.52,2.12.6,2.27,1.75,3.31Z"/>
    <path class="cls-1" d="m138.93,147.26c.48-.42.87-1.33.87-1.99,0-.31-.06-.59-.22-.92-.22-.49-.66-.92-.92-.92-.22,0-.42.53-.5,1.37l-.13.97-.19.97-.07.97v.65l.58-.58.58-.52Z"/>
    <path class="cls-1" d="m133.55,176.02c.9,1.04,1.4,1.29,2.59,1.29.32,0,.63-.04.92-.12l.84-.26.65-.2c.31-.08.52-.22.52-.33,0-.14-.51-.57-1.29-1.09-.52-.35-1.04-.66-1.55-.91-.56-.27-1.02-.4-1.49-.4-.91,0-1.79.28-2.66.86.67.24.8.36,1.49,1.16Z"/>
    <path class="cls-1" d="m143.72,192.41c1.14-.64,1.76-.98,1.88-1.04,1.2-.64,1.75-1.09,1.75-1.42,0-.43-.73-.68-1.98-.68-2.51,0-4.56,1.72-4.56,3.81l.06.75c1.14-.5,1.55-.7,2.85-1.42Z"/>
    <path class="cls-1" d="m170.8,176.47c.21-.16.51-.37.91-.65,1.3-.88,1.37-.94,1.37-1.22,0-.36-.52-.53-1.62-.53-2.04,0-3.28.96-4.28,3.31.92-.19,1.23-.43,1.68-.44l1.17.06c.14-.05.4-.23.77-.52Z"/>
    <path class="cls-1" d="m150.72,149.4c.03.56.49,1.11.94,1.11.6,0,1.02-.9,1.26-2.27.11-.63.15-.73.15-.9,0-.48-.16-.61-.77-.61h-.34s-.46.01-.46.01h-.29c-.41-.01-.56.31-.56,1.13v.3s.07,1.23.07,1.23Z"/>
    <path class="cls-1" d="m84.71,98.26c.94,0,1.7-.76,1.7-1.7s-.76-1.69-1.7-1.69-1.69.76-1.69,1.69.76,1.7,1.69,1.7Z"/>
    <path class="cls-1" d="m117.04,98.26c.94,0,1.7-.76,1.7-1.7s-.76-1.69-1.7-1.69-1.7.76-1.7,1.69.76,1.7,1.7,1.7Z"/>
    <path class="cls-1" d="m84.78,113.61c.9,0,1.63-.76,1.63-1.69s-.76-1.69-1.7-1.69-1.69.76-1.69,1.69.79,1.69,1.76,1.69Z"/>
    <path class="cls-1" d="m117.04,113.61c.94,0,1.7-.76,1.7-1.69s-.76-1.69-1.7-1.69-1.7.76-1.7,1.69.76,1.69,1.7,1.69Z"/>
    <path class="cls-1" d="m110.57,104.01c-3.1-3.18-5.98-4.51-9.77-4.51-3.98,0-7.57,1.63-9.96,4.51,2.66,3.32,6.01,4.97,10.15,4.97,3.83,0,6.48-1.37,9.58-4.97Zm-17.77,0c2.74-2.13,5.05-3.01,7.91-3.01s5.03.84,7.84,3.07c-2.45,2.43-4.59,3.34-7.89,3.34-2.93,0-5.59-1.16-7.86-3.4Z"/>
    <path class="cls-1" d="m100.67,102.24c-1.63,0-3.16.38-4.53,1.12,1.64,1.02,2.93,1.43,4.46,1.43,1.79,0,3.3-.45,4.75-1.43-1.53-.73-3.12-1.12-4.68-1.12Z"/>
    <path class="cls-1" d="m89.87,90.94v-3.14c0-1.54-.63-2.49-1.64-2.49-.2,0-.52.08-.79.2-.22.1-.37.19-.46.26-.15.14-.29.31-.39.53-.17.35-.26.6-.26.72v4.76c0,.97.75,1.7,1.74,1.7,1.14,0,1.79-.61,1.79-1.7v-.85Z"/>
    <path class="cls-1" d="m102.61,90.94v-3.14c0-1.52-.63-2.49-1.62-2.49-1.16,0-1.91.95-1.91,2.43v4.05c0,.96.76,1.7,1.74,1.7,1.14,0,1.79-.61,1.79-1.7v-.85Z"/>
    <path class="cls-1" d="m114.95,90.94v-3.14c0-1.54-.63-2.49-1.63-2.49-.2,0-.52.08-.79.2-.22.1-.37.19-.46.26-.15.14-.29.31-.39.53-.17.35-.26.6-.26.72v4.76c0,.97.76,1.7,1.74,1.7,1.14,0,1.79-.61,1.79-1.7v-.85Z"/>
    <rect class="cls-1" x="85.42" y="121.91" width="3.85" height="4.96"/>
    <rect class="cls-1" x="85.42" y="127.99" width="3.85" height="1.57"/>
    <rect class="cls-1" x="111.69" y="121.91" width="3.85" height="4.96"/>
    <rect class="cls-1" x="111.69" y="127.99" width="3.85" height="1.57"/>
  </g>
</svg>