<svg width="170" height="44" viewBox="0 0 170 44" fill="none" xmlns="http://www.w3.org/2000/svg">
<path d="M1.5 9C1.5 4.58172 5.08172 1 9.5 1H160.5C164.918 1 168.5 4.58172 168.5 9V35C168.5 39.4183 164.918 43 160.5 43H9.5C5.08172 43 1.5 39.4183 1.5 35V9Z" fill="white"/>
<path fill-rule="evenodd" clip-rule="evenodd" d="M34.5066 13H18.4934C17.9447 13 17.5 13.4446 17.5 13.9934V30.0066C17.5 30.5552 17.9447 31 18.4934 31H27.1143V24.0295H24.7686V21.3129H27.1143V19.3095C27.1143 16.9846 28.5343 15.7186 30.6083 15.7186C31.6018 15.7186 32.4556 15.7926 32.7044 15.8256V18.2553L31.266 18.256C30.1381 18.256 29.9197 18.792 29.9197 19.5785V21.3129H32.6098L32.2595 24.0295H29.9197V31H34.5066C35.0552 31 35.5 30.5552 35.5 30.0066V13.9934C35.5 13.4446 35.0552 13 34.5066 13Z" fill="#3B5998"/>
<path d="M60.732 28V17.568H67.308V19.552H63.084V21.968H66.7V23.952H63.084V28H60.732ZM70.3213 28.192C69.9586 28.192 69.6279 28.128 69.3293 28C69.0413 27.8827 68.7959 27.7173 68.5933 27.504C68.3906 27.28 68.2306 27.024 68.1133 26.736C68.0066 26.448 67.9533 26.1333 67.9533 25.792C67.9533 24.96 68.3053 24.3093 69.0093 23.84C69.7133 23.3707 70.8493 23.056 72.4173 22.896C72.3959 22.544 72.2893 22.2667 72.0973 22.064C71.9159 21.8507 71.6066 21.744 71.1693 21.744C70.8279 21.744 70.4866 21.808 70.1453 21.936C69.8146 22.064 69.4573 22.24 69.0733 22.464L68.2253 20.912C68.7373 20.6027 69.2706 20.352 69.8253 20.16C70.3906 19.968 70.9879 19.872 71.6173 19.872C72.6413 19.872 73.4199 20.1653 73.9533 20.752C74.4973 21.328 74.7693 22.2293 74.7693 23.456V28H72.8493L72.6893 27.184H72.6253C72.2839 27.4827 71.9266 27.728 71.5533 27.92C71.1799 28.1013 70.7693 28.192 70.3213 28.192ZM71.1213 26.368C71.3879 26.368 71.6173 26.3093 71.8093 26.192C72.0013 26.0747 72.2039 25.9093 72.4173 25.696V24.304C71.5853 24.4213 71.0093 24.592 70.6893 24.816C70.3693 25.04 70.2093 25.3067 70.2093 25.616C70.2093 25.872 70.2893 26.064 70.4493 26.192C70.6199 26.3093 70.8439 26.368 71.1213 26.368ZM80.2148 28.192C79.6601 28.192 79.1428 28.1013 78.6628 27.92C78.1934 27.728 77.7828 27.456 77.4308 27.104C77.0788 26.752 76.8014 26.32 76.5988 25.808C76.3961 25.2853 76.2948 24.6933 76.2948 24.032C76.2948 23.3707 76.4068 22.784 76.6308 22.272C76.8548 21.7493 77.1534 21.312 77.5268 20.96C77.9108 20.608 78.3534 20.3413 78.8548 20.16C79.3561 19.968 79.8788 19.872 80.4227 19.872C80.9134 19.872 81.3454 19.952 81.7188 20.112C82.1028 20.272 82.4441 20.4747 82.7428 20.72L81.6388 22.24C81.2654 21.9307 80.9081 21.776 80.5668 21.776C79.9908 21.776 79.5374 21.9787 79.2068 22.384C78.8761 22.7893 78.7108 23.3387 78.7108 24.032C78.7108 24.7253 78.8761 25.2747 79.2068 25.68C79.5481 26.0853 79.9748 26.288 80.4868 26.288C80.7428 26.288 80.9881 26.2347 81.2228 26.128C81.4681 26.0107 81.6974 25.872 81.9108 25.712L82.8388 27.248C82.4441 27.5893 82.0174 27.8347 81.5588 27.984C81.1001 28.1227 80.6521 28.192 80.2148 28.192ZM87.3264 28.192C86.761 28.192 86.233 28.1013 85.7424 27.92C85.2517 27.728 84.825 27.456 84.4624 27.104C84.0997 26.7413 83.817 26.304 83.6144 25.792C83.4117 25.28 83.3104 24.6933 83.3104 24.032C83.3104 23.392 83.417 22.816 83.6304 22.304C83.8437 21.7813 84.121 21.344 84.4624 20.992C84.8144 20.6293 85.2144 20.352 85.6624 20.16C86.1104 19.968 86.5744 19.872 87.0544 19.872C87.6197 19.872 88.1104 19.968 88.5264 20.16C88.953 20.352 89.305 20.6187 89.5824 20.96C89.8704 21.3013 90.0837 21.7067 90.2224 22.176C90.361 22.6347 90.4304 23.136 90.4304 23.68C90.4304 23.8933 90.4197 24.096 90.3984 24.288C90.377 24.48 90.3557 24.624 90.3344 24.72H85.5824C85.689 25.296 85.9237 25.7227 86.2864 26C86.6597 26.2667 87.113 26.4 87.6464 26.4C88.2117 26.4 88.7824 26.224 89.3584 25.872L90.1424 27.296C89.737 27.5733 89.2837 27.792 88.7824 27.952C88.2917 28.112 87.8064 28.192 87.3264 28.192ZM85.5664 23.168H88.4304C88.4304 22.72 88.329 22.3573 88.1264 22.08C87.9237 21.8027 87.5824 21.664 87.1024 21.664C86.729 21.664 86.3984 21.7867 86.1104 22.032C85.833 22.2773 85.6517 22.656 85.5664 23.168ZM96.2156 28.192C95.8636 28.192 95.5063 28.1067 95.1436 27.936C94.7916 27.7547 94.461 27.4933 94.1516 27.152H94.0876L93.8956 28H92.0556V16.784H94.4076V19.536L94.3436 20.752C94.653 20.4747 94.9836 20.2613 95.3356 20.112C95.6983 19.952 96.0663 19.872 96.4396 19.872C96.9196 19.872 97.3516 19.968 97.7356 20.16C98.1196 20.352 98.445 20.624 98.7116 20.976C98.989 21.3173 99.197 21.7387 99.3356 22.24C99.485 22.7307 99.5596 23.28 99.5596 23.888C99.5596 24.5707 99.4636 25.1787 99.2716 25.712C99.0903 26.2453 98.8396 26.6987 98.5196 27.072C98.2103 27.4347 97.853 27.712 97.4476 27.904C97.053 28.096 96.6423 28.192 96.2156 28.192ZM95.6716 26.272C96.077 26.272 96.4236 26.0907 96.7116 25.728C96.9996 25.3547 97.1436 24.7573 97.1436 23.936C97.1436 22.5067 96.685 21.792 95.7676 21.792C95.2983 21.792 94.845 22.032 94.4076 22.512V25.76C94.621 25.952 94.8343 26.0853 95.0476 26.16C95.261 26.2347 95.469 26.272 95.6716 26.272ZM104.636 28.192C104.134 28.192 103.649 28.1013 103.18 27.92C102.71 27.728 102.294 27.456 101.932 27.104C101.58 26.752 101.297 26.32 101.084 25.808C100.87 25.2853 100.764 24.6933 100.764 24.032C100.764 23.3707 100.87 22.784 101.084 22.272C101.297 21.7493 101.58 21.312 101.932 20.96C102.294 20.608 102.71 20.3413 103.18 20.16C103.649 19.968 104.134 19.872 104.636 19.872C105.137 19.872 105.617 19.968 106.076 20.16C106.545 20.3413 106.956 20.608 107.308 20.96C107.67 21.312 107.958 21.7493 108.172 22.272C108.385 22.784 108.492 23.3707 108.492 24.032C108.492 24.6933 108.385 25.2853 108.172 25.808C107.958 26.32 107.67 26.752 107.308 27.104C106.956 27.456 106.545 27.728 106.076 27.92C105.617 28.1013 105.137 28.192 104.636 28.192ZM104.636 26.288C105.116 26.288 105.478 26.0853 105.724 25.68C105.969 25.2747 106.092 24.7253 106.092 24.032C106.092 23.3387 105.969 22.7893 105.724 22.384C105.478 21.9787 105.116 21.776 104.636 21.776C104.145 21.776 103.777 21.9787 103.532 22.384C103.297 22.7893 103.18 23.3387 103.18 24.032C103.18 24.7253 103.297 25.2747 103.532 25.68C103.777 26.0853 104.145 26.288 104.636 26.288ZM113.511 28.192C113.009 28.192 112.524 28.1013 112.055 27.92C111.585 27.728 111.169 27.456 110.807 27.104C110.455 26.752 110.172 26.32 109.959 25.808C109.745 25.2853 109.639 24.6933 109.639 24.032C109.639 23.3707 109.745 22.784 109.959 22.272C110.172 21.7493 110.455 21.312 110.807 20.96C111.169 20.608 111.585 20.3413 112.055 20.16C112.524 19.968 113.009 19.872 113.511 19.872C114.012 19.872 114.492 19.968 114.951 20.16C115.42 20.3413 115.831 20.608 116.183 20.96C116.545 21.312 116.833 21.7493 117.047 22.272C117.26 22.784 117.367 23.3707 117.367 24.032C117.367 24.6933 117.26 25.2853 117.047 25.808C116.833 26.32 116.545 26.752 116.183 27.104C115.831 27.456 115.42 27.728 114.951 27.92C114.492 28.1013 114.012 28.192 113.511 28.192ZM113.511 26.288C113.991 26.288 114.353 26.0853 114.599 25.68C114.844 25.2747 114.967 24.7253 114.967 24.032C114.967 23.3387 114.844 22.7893 114.599 22.384C114.353 21.9787 113.991 21.776 113.511 21.776C113.02 21.776 112.652 21.9787 112.407 22.384C112.172 22.7893 112.055 23.3387 112.055 24.032C112.055 24.7253 112.172 25.2747 112.407 25.68C112.652 26.0853 113.02 26.288 113.511 26.288ZM118.978 28V16.784H121.266V23.216H121.33L123.842 20.064H126.402L123.618 23.328L126.61 28H124.066L122.274 24.912L121.266 26.048V28H118.978Z" fill="#292929"/>
<path d="M9.5 2H160.5V0H9.5V2ZM167.5 9V35H169.5V9H167.5ZM160.5 42H9.5V44H160.5V42ZM2.5 35V9H0.5V35H2.5ZM9.5 42C5.63401 42 2.5 38.866 2.5 35H0.5C0.5 39.9706 4.52944 44 9.5 44V42ZM167.5 35C167.5 38.866 164.366 42 160.5 42V44C165.471 44 169.5 39.9706 169.5 35H167.5ZM160.5 2C164.366 2 167.5 5.13401 167.5 9H169.5C169.5 4.02944 165.471 0 160.5 0V2ZM9.5 0C4.52944 0 0.5 4.02944 0.5 9H2.5C2.5 5.13401 5.63401 2 9.5 2V0Z" fill="#C4C4C4"/>
</svg>
