<svg width="170" height="44" viewBox="0 0 170 44" fill="none" xmlns="http://www.w3.org/2000/svg">
<path d="M1.5 9C1.5 4.58172 5.08172 1 9.5 1H160.5C164.918 1 168.5 4.58172 168.5 9V35C168.5 39.4183 164.918 43 160.5 43H9.5C5.08172 43 1.5 39.4183 1.5 35V9Z" fill="white"/>
<path fill-rule="evenodd" clip-rule="evenodd" d="M35.14 22.2047C35.14 21.5665 35.0827 20.9529 34.9764 20.3638H26.5V23.8451H31.3436C31.135 24.9701 30.5009 25.9233 29.5477 26.5615V28.8197H32.4564C34.1582 27.2529 35.14 24.9456 35.14 22.2047Z" fill="#4285F4"/>
<path fill-rule="evenodd" clip-rule="evenodd" d="M26.4998 31C28.9298 31 30.967 30.1941 32.4561 28.8195L29.5475 26.5613C28.7416 27.1013 27.7107 27.4204 26.4998 27.4204C24.1557 27.4204 22.1716 25.8372 21.4638 23.71H18.457V26.0418C19.9379 28.9831 22.9816 31 26.4998 31Z" fill="#34A853"/>
<path fill-rule="evenodd" clip-rule="evenodd" d="M21.4641 23.7098C21.2841 23.1698 21.1818 22.593 21.1818 21.9998C21.1818 21.4066 21.2841 20.8298 21.4641 20.2898V17.958H18.4573C17.8477 19.173 17.5 20.5476 17.5 21.9998C17.5 23.4521 17.8477 24.8266 18.4573 26.0416L21.4641 23.7098Z" fill="#FBBC05"/>
<path fill-rule="evenodd" clip-rule="evenodd" d="M26.4998 16.5795C27.8211 16.5795 29.0075 17.0336 29.9402 17.9255L32.5216 15.3441C30.9629 13.8918 28.9257 13 26.4998 13C22.9816 13 19.9379 15.0168 18.457 17.9582L21.4638 20.29C22.1716 18.1627 24.1557 16.5795 26.4998 16.5795Z" fill="#EA4335"/>
<path d="M65.34 28.192C64.6253 28.192 63.9533 28.08 63.324 27.856C62.7053 27.6213 62.1667 27.28 61.708 26.832C61.2493 26.384 60.8867 25.8293 60.62 25.168C60.364 24.496 60.236 23.7227 60.236 22.848C60.236 21.984 60.3693 21.216 60.636 20.544C60.9027 19.8613 61.2653 19.2853 61.724 18.816C62.1933 18.3467 62.7373 17.9893 63.356 17.744C63.9747 17.4987 64.6307 17.376 65.324 17.376C66.0813 17.376 66.732 17.5147 67.276 17.792C67.82 18.0693 68.2627 18.384 68.604 18.736L67.372 20.24C67.1053 20.0053 66.8227 19.808 66.524 19.648C66.2253 19.488 65.852 19.408 65.404 19.408C64.9987 19.408 64.6253 19.488 64.284 19.648C63.9533 19.7973 63.6653 20.016 63.42 20.304C63.1747 20.592 62.9827 20.944 62.844 21.36C62.716 21.776 62.652 22.2453 62.652 22.768C62.652 23.8453 62.892 24.6827 63.372 25.28C63.8627 25.8667 64.5987 26.16 65.58 26.16C65.7933 26.16 66.0013 26.1333 66.204 26.08C66.4067 26.0267 66.572 25.9467 66.7 25.84V24.048H64.972V22.128H68.78V26.928C68.4173 27.28 67.9373 27.5787 67.34 27.824C66.7427 28.0693 66.076 28.192 65.34 28.192ZM74.1511 28.192C73.6498 28.192 73.1645 28.1013 72.6951 27.92C72.2258 27.728 71.8098 27.456 71.4471 27.104C71.0951 26.752 70.8125 26.32 70.5991 25.808C70.3858 25.2853 70.2791 24.6933 70.2791 24.032C70.2791 23.3707 70.3858 22.784 70.5991 22.272C70.8125 21.7493 71.0951 21.312 71.4471 20.96C71.8098 20.608 72.2258 20.3413 72.6951 20.16C73.1645 19.968 73.6498 19.872 74.1511 19.872C74.6525 19.872 75.1325 19.968 75.5911 20.16C76.0605 20.3413 76.4711 20.608 76.8231 20.96C77.1858 21.312 77.4738 21.7493 77.6871 22.272C77.9005 22.784 78.0071 23.3707 78.0071 24.032C78.0071 24.6933 77.9005 25.2853 77.6871 25.808C77.4738 26.32 77.1858 26.752 76.8231 27.104C76.4711 27.456 76.0605 27.728 75.5911 27.92C75.1325 28.1013 74.6525 28.192 74.1511 28.192ZM74.1511 26.288C74.6311 26.288 74.9938 26.0853 75.2391 25.68C75.4845 25.2747 75.6071 24.7253 75.6071 24.032C75.6071 23.3387 75.4845 22.7893 75.2391 22.384C74.9938 21.9787 74.6311 21.776 74.1511 21.776C73.6605 21.776 73.2925 21.9787 73.0471 22.384C72.8125 22.7893 72.6951 23.3387 72.6951 24.032C72.6951 24.7253 72.8125 25.2747 73.0471 25.68C73.2925 26.0853 73.6605 26.288 74.1511 26.288ZM83.0261 28.192C82.5248 28.192 82.0395 28.1013 81.5701 27.92C81.1008 27.728 80.6848 27.456 80.3221 27.104C79.9701 26.752 79.6875 26.32 79.4741 25.808C79.2608 25.2853 79.1541 24.6933 79.1541 24.032C79.1541 23.3707 79.2608 22.784 79.4741 22.272C79.6875 21.7493 79.9701 21.312 80.3221 20.96C80.6848 20.608 81.1008 20.3413 81.5701 20.16C82.0395 19.968 82.5248 19.872 83.0261 19.872C83.5275 19.872 84.0075 19.968 84.4661 20.16C84.9355 20.3413 85.3461 20.608 85.6981 20.96C86.0608 21.312 86.3488 21.7493 86.5621 22.272C86.7755 22.784 86.8821 23.3707 86.8821 24.032C86.8821 24.6933 86.7755 25.2853 86.5621 25.808C86.3488 26.32 86.0608 26.752 85.6981 27.104C85.3461 27.456 84.9355 27.728 84.4661 27.92C84.0075 28.1013 83.5275 28.192 83.0261 28.192ZM83.0261 26.288C83.5061 26.288 83.8688 26.0853 84.1141 25.68C84.3595 25.2747 84.4821 24.7253 84.4821 24.032C84.4821 23.3387 84.3595 22.7893 84.1141 22.384C83.8688 21.9787 83.5061 21.776 83.0261 21.776C82.5355 21.776 82.1675 21.9787 81.9221 22.384C81.6875 22.7893 81.5701 23.3387 81.5701 24.032C81.5701 24.7253 81.6875 25.2747 81.9221 25.68C82.1675 26.0853 82.5355 26.288 83.0261 26.288ZM91.3251 31.376C90.8558 31.376 90.4185 31.3333 90.0131 31.248C89.6185 31.1733 89.2665 31.056 88.9571 30.896C88.6585 30.736 88.4238 30.528 88.2531 30.272C88.0825 30.016 87.9971 29.712 87.9971 29.36C87.9971 28.72 88.3758 28.1867 89.1331 27.76V27.696C88.9198 27.5573 88.7438 27.3813 88.6051 27.168C88.4665 26.9547 88.3971 26.6827 88.3971 26.352C88.3971 26.064 88.4825 25.792 88.6531 25.536C88.8238 25.2693 89.0371 25.0453 89.2931 24.864V24.8C89.0158 24.608 88.7651 24.336 88.5411 23.984C88.3278 23.6213 88.2211 23.2053 88.2211 22.736C88.2211 22.256 88.3118 21.84 88.4931 21.488C88.6745 21.1253 88.9145 20.8267 89.2131 20.592C89.5225 20.3467 89.8745 20.1653 90.2691 20.048C90.6638 19.9307 91.0745 19.872 91.5011 19.872C91.9705 19.872 92.3811 19.936 92.7331 20.064H95.6291V21.776H94.3651C94.4398 21.8933 94.4985 22.0427 94.5411 22.224C94.5945 22.4053 94.6211 22.6027 94.6211 22.816C94.6211 23.2747 94.5411 23.6747 94.3811 24.016C94.2211 24.3467 93.9971 24.624 93.7091 24.848C93.4318 25.0613 93.1011 25.2213 92.7171 25.328C92.3438 25.4347 91.9385 25.488 91.5011 25.488C91.1918 25.488 90.8718 25.4347 90.5411 25.328C90.4345 25.4133 90.3598 25.4987 90.3171 25.584C90.2745 25.6693 90.2531 25.7813 90.2531 25.92C90.2531 26.1227 90.3385 26.272 90.5091 26.368C90.6905 26.464 91.0051 26.512 91.4531 26.512H92.7331C93.7145 26.512 94.4611 26.672 94.9731 26.992C95.4958 27.3013 95.7571 27.8133 95.7571 28.528C95.7571 28.944 95.6505 29.3227 95.4371 29.664C95.2345 30.016 94.9411 30.3147 94.5571 30.56C94.1731 30.816 93.7091 31.0133 93.1651 31.152C92.6211 31.3013 92.0078 31.376 91.3251 31.376ZM91.5011 24.064C91.8105 24.064 92.0665 23.9573 92.2691 23.744C92.4825 23.52 92.5891 23.184 92.5891 22.736C92.5891 22.32 92.4825 22.0053 92.2691 21.792C92.0665 21.568 91.8105 21.456 91.5011 21.456C91.1918 21.456 90.9305 21.5627 90.7171 21.776C90.5145 21.9893 90.4131 22.3093 90.4131 22.736C90.4131 23.184 90.5145 23.52 90.7171 23.744C90.9305 23.9573 91.1918 24.064 91.5011 24.064ZM91.6931 29.904C92.2265 29.904 92.6638 29.808 93.0051 29.616C93.3465 29.4347 93.5171 29.2053 93.5171 28.928C93.5171 28.6827 93.4105 28.5173 93.1971 28.432C92.9945 28.3467 92.6958 28.304 92.3011 28.304H91.4851C91.2078 28.304 90.9838 28.2933 90.8131 28.272C90.6425 28.2613 90.4931 28.24 90.3651 28.208C90.0771 28.464 89.9331 28.7253 89.9331 28.992C89.9331 29.2907 90.0931 29.5147 90.4131 29.664C90.7331 29.824 91.1598 29.904 91.6931 29.904ZM99.2 28.192C98.7947 28.192 98.4533 28.128 98.176 28C97.8987 27.872 97.6747 27.696 97.504 27.472C97.344 27.2373 97.2267 26.96 97.152 26.64C97.0773 26.3093 97.04 25.9413 97.04 25.536V16.784H99.392V25.632C99.392 25.8773 99.4347 26.048 99.52 26.144C99.616 26.24 99.712 26.288 99.808 26.288C99.8613 26.288 99.904 26.288 99.936 26.288C99.9787 26.288 100.032 26.2773 100.096 26.256L100.384 28C100.256 28.0533 100.091 28.096 99.888 28.128C99.696 28.1707 99.4667 28.192 99.2 28.192ZM105.17 28.192C104.605 28.192 104.077 28.1013 103.586 27.92C103.095 27.728 102.669 27.456 102.306 27.104C101.943 26.7413 101.661 26.304 101.458 25.792C101.255 25.28 101.154 24.6933 101.154 24.032C101.154 23.392 101.261 22.816 101.474 22.304C101.687 21.7813 101.965 21.344 102.306 20.992C102.658 20.6293 103.058 20.352 103.506 20.16C103.954 19.968 104.418 19.872 104.898 19.872C105.463 19.872 105.954 19.968 106.37 20.16C106.797 20.352 107.149 20.6187 107.426 20.96C107.714 21.3013 107.927 21.7067 108.066 22.176C108.205 22.6347 108.274 23.136 108.274 23.68C108.274 23.8933 108.263 24.096 108.242 24.288C108.221 24.48 108.199 24.624 108.178 24.72H103.426C103.533 25.296 103.767 25.7227 104.13 26C104.503 26.2667 104.957 26.4 105.49 26.4C106.055 26.4 106.626 26.224 107.202 25.872L107.986 27.296C107.581 27.5733 107.127 27.792 106.626 27.952C106.135 28.112 105.65 28.192 105.17 28.192ZM103.41 23.168H106.274C106.274 22.72 106.173 22.3573 105.97 22.08C105.767 21.8027 105.426 21.664 104.946 21.664C104.573 21.664 104.242 21.7867 103.954 22.032C103.677 22.2773 103.495 22.656 103.41 23.168Z" fill="#292929"/>
<path d="M9.5 2H160.5V0H9.5V2ZM167.5 9V35H169.5V9H167.5ZM160.5 42H9.5V44H160.5V42ZM2.5 35V9H0.5V35H2.5ZM9.5 42C5.63401 42 2.5 38.866 2.5 35H0.5C0.5 39.9706 4.52944 44 9.5 44V42ZM167.5 35C167.5 38.866 164.366 42 160.5 42V44C165.471 44 169.5 39.9706 169.5 35H167.5ZM160.5 2C164.366 2 167.5 5.13401 167.5 9H169.5C169.5 4.02944 165.471 0 160.5 0V2ZM9.5 0C4.52944 0 0.5 4.02944 0.5 9H2.5C2.5 5.13401 5.63401 2 9.5 2V0Z" fill="#C4C4C4"/>
</svg>
