<svg width="169" height="44" viewBox="0 0 169 44" fill="none" xmlns="http://www.w3.org/2000/svg">
<path d="M1 9C1 4.58172 4.58172 1 9 1H160C164.418 1 168 4.58172 168 9V35C168 39.4183 164.418 43 160 43H9C4.58172 43 1 39.4183 1 35V9Z" fill="white"/>
<path d="M25.5717 13.8571H17.8574V21.5714H25.5717V13.8571Z" fill="#F25022"/>
<path d="M25.5717 22.4286H17.8574V30.1428H25.5717V22.4286Z" fill="#00A4EF"/>
<path d="M34.143 13.8571H26.4287V21.5714H34.143V13.8571Z" fill="#7FBA00"/>
<path d="M34.143 22.4286H26.4287V30.1428H34.143V22.4286Z" fill="#FFB900"/>
<path d="M60.232 28V17.568H62.808L64.488 22.208C64.5947 22.5173 64.696 22.8373 64.792 23.168C64.888 23.488 64.9893 23.808 65.096 24.128H65.16C65.2667 23.808 65.3627 23.488 65.448 23.168C65.544 22.8373 65.6453 22.5173 65.752 22.208L67.4 17.568H69.96V28H67.816V24.176C67.816 23.92 67.8267 23.6373 67.848 23.328C67.8693 23.0187 67.896 22.7093 67.928 22.4C67.96 22.08 67.992 21.7707 68.024 21.472C68.056 21.1627 68.088 20.88 68.12 20.624H68.056L67.208 23.104L65.72 27.088H64.424L62.936 23.104L62.104 20.624H62.04C62.072 20.88 62.104 21.1627 62.136 21.472C62.168 21.7707 62.2 22.08 62.232 22.4C62.264 22.7093 62.2907 23.0187 62.312 23.328C62.3333 23.6373 62.344 23.92 62.344 24.176V28H60.232ZM72.2275 28V20.064H74.5795V28H72.2275ZM73.3955 18.896C73.0008 18.896 72.6755 18.784 72.4195 18.56C72.1635 18.3253 72.0355 18.0267 72.0355 17.664C72.0355 17.3013 72.1635 17.008 72.4195 16.784C72.6755 16.56 73.0008 16.448 73.3955 16.448C73.8008 16.448 74.1262 16.56 74.3715 16.784C74.6275 17.008 74.7555 17.3013 74.7555 17.664C74.7555 18.0267 74.6275 18.3253 74.3715 18.56C74.1262 18.784 73.8008 18.896 73.3955 18.896ZM80.1054 28.192C79.5507 28.192 79.0334 28.1013 78.5534 27.92C78.084 27.728 77.6734 27.456 77.3214 27.104C76.9694 26.752 76.692 26.32 76.4894 25.808C76.2867 25.2853 76.1854 24.6933 76.1854 24.032C76.1854 23.3707 76.2974 22.784 76.5214 22.272C76.7454 21.7493 77.044 21.312 77.4174 20.96C77.8014 20.608 78.244 20.3413 78.7454 20.16C79.2467 19.968 79.7694 19.872 80.3134 19.872C80.804 19.872 81.236 19.952 81.6094 20.112C81.9934 20.272 82.3347 20.4747 82.6334 20.72L81.5294 22.24C81.156 21.9307 80.7987 21.776 80.4574 21.776C79.8814 21.776 79.428 21.9787 79.0974 22.384C78.7667 22.7893 78.6014 23.3387 78.6014 24.032C78.6014 24.7253 78.7667 25.2747 79.0974 25.68C79.4387 26.0853 79.8654 26.288 80.3774 26.288C80.6334 26.288 80.8787 26.2347 81.1134 26.128C81.3587 26.0107 81.588 25.872 81.8014 25.712L82.7294 27.248C82.3347 27.5893 81.908 27.8347 81.4494 27.984C80.9907 28.1227 80.5427 28.192 80.1054 28.192ZM84.1181 28V20.064H86.0381L86.1981 21.456H86.2621C86.5501 20.912 86.8968 20.512 87.3021 20.256C87.7075 20 88.1128 19.872 88.5181 19.872C88.7421 19.872 88.9235 19.888 89.0621 19.92C89.2115 19.9413 89.3448 19.9787 89.4621 20.032L89.0781 22.064C88.9288 22.0213 88.7901 21.9893 88.6621 21.968C88.5341 21.9467 88.3848 21.936 88.2141 21.936C87.9155 21.936 87.6008 22.0427 87.2701 22.256C86.9501 22.4693 86.6835 22.848 86.4701 23.392V28H84.1181ZM93.7449 28.192C93.2435 28.192 92.7582 28.1013 92.2889 27.92C91.8195 27.728 91.4035 27.456 91.0409 27.104C90.6889 26.752 90.4062 26.32 90.1929 25.808C89.9795 25.2853 89.8729 24.6933 89.8729 24.032C89.8729 23.3707 89.9795 22.784 90.1929 22.272C90.4062 21.7493 90.6889 21.312 91.0409 20.96C91.4035 20.608 91.8195 20.3413 92.2889 20.16C92.7582 19.968 93.2435 19.872 93.7449 19.872C94.2462 19.872 94.7262 19.968 95.1849 20.16C95.6542 20.3413 96.0649 20.608 96.4169 20.96C96.7795 21.312 97.0675 21.7493 97.2809 22.272C97.4942 22.784 97.6009 23.3707 97.6009 24.032C97.6009 24.6933 97.4942 25.2853 97.2809 25.808C97.0675 26.32 96.7795 26.752 96.4169 27.104C96.0649 27.456 95.6542 27.728 95.1849 27.92C94.7262 28.1013 94.2462 28.192 93.7449 28.192ZM93.7449 26.288C94.2249 26.288 94.5875 26.0853 94.8329 25.68C95.0782 25.2747 95.2009 24.7253 95.2009 24.032C95.2009 23.3387 95.0782 22.7893 94.8329 22.384C94.5875 21.9787 94.2249 21.776 93.7449 21.776C93.2542 21.776 92.8862 21.9787 92.6409 22.384C92.4062 22.7893 92.2889 23.3387 92.2889 24.032C92.2889 24.7253 92.4062 25.2747 92.6409 25.68C92.8862 26.0853 93.2542 26.288 93.7449 26.288ZM101.47 28.192C100.947 28.192 100.408 28.0907 99.8538 27.888C99.3098 27.6853 98.8351 27.4187 98.4298 27.088L99.4858 25.616C99.8484 25.8933 100.195 26.1013 100.526 26.24C100.856 26.3787 101.192 26.448 101.534 26.448C101.886 26.448 102.142 26.3893 102.302 26.272C102.462 26.1547 102.542 25.9893 102.542 25.776C102.542 25.648 102.494 25.536 102.398 25.44C102.312 25.3333 102.19 25.2373 102.03 25.152C101.88 25.0667 101.71 24.992 101.518 24.928C101.326 24.8533 101.128 24.7733 100.926 24.688C100.68 24.592 100.435 24.48 100.19 24.352C99.9444 24.224 99.7204 24.0693 99.5178 23.888C99.3151 23.696 99.1498 23.4773 99.0218 23.232C98.8938 22.976 98.8298 22.6827 98.8298 22.352C98.8298 21.9893 98.8991 21.6533 99.0378 21.344C99.1871 21.0347 99.3951 20.7733 99.6618 20.56C99.9284 20.3467 100.248 20.1813 100.622 20.064C100.995 19.936 101.411 19.872 101.87 19.872C102.478 19.872 103.011 19.9787 103.47 20.192C103.928 20.3947 104.328 20.624 104.67 20.88L103.614 22.288C103.326 22.0747 103.043 21.9093 102.766 21.792C102.488 21.6747 102.211 21.616 101.934 21.616C101.336 21.616 101.038 21.824 101.038 22.24C101.038 22.368 101.08 22.48 101.166 22.576C101.251 22.6613 101.363 22.7413 101.502 22.816C101.651 22.8907 101.816 22.9653 101.998 23.04C102.19 23.104 102.387 23.1733 102.59 23.248C102.846 23.344 103.096 23.456 103.342 23.584C103.598 23.7013 103.827 23.8507 104.03 24.032C104.243 24.2133 104.414 24.4373 104.542 24.704C104.67 24.96 104.734 25.2693 104.734 25.632C104.734 25.9947 104.664 26.3307 104.526 26.64C104.387 26.9493 104.179 27.2213 103.902 27.456C103.624 27.68 103.283 27.8613 102.878 28C102.472 28.128 102.003 28.192 101.47 28.192ZM109.636 28.192C109.134 28.192 108.649 28.1013 108.18 27.92C107.71 27.728 107.294 27.456 106.932 27.104C106.58 26.752 106.297 26.32 106.084 25.808C105.87 25.2853 105.764 24.6933 105.764 24.032C105.764 23.3707 105.87 22.784 106.084 22.272C106.297 21.7493 106.58 21.312 106.932 20.96C107.294 20.608 107.71 20.3413 108.18 20.16C108.649 19.968 109.134 19.872 109.636 19.872C110.137 19.872 110.617 19.968 111.076 20.16C111.545 20.3413 111.956 20.608 112.308 20.96C112.67 21.312 112.958 21.7493 113.172 22.272C113.385 22.784 113.492 23.3707 113.492 24.032C113.492 24.6933 113.385 25.2853 113.172 25.808C112.958 26.32 112.67 26.752 112.308 27.104C111.956 27.456 111.545 27.728 111.076 27.92C110.617 28.1013 110.137 28.192 109.636 28.192ZM109.636 26.288C110.116 26.288 110.478 26.0853 110.724 25.68C110.969 25.2747 111.092 24.7253 111.092 24.032C111.092 23.3387 110.969 22.7893 110.724 22.384C110.478 21.9787 110.116 21.776 109.636 21.776C109.145 21.776 108.777 21.9787 108.532 22.384C108.297 22.7893 108.18 23.3387 108.18 24.032C108.18 24.7253 108.297 25.2747 108.532 25.68C108.777 26.0853 109.145 26.288 109.636 26.288ZM115.424 28V21.904H114.368V20.16L115.424 20.08V19.648C115.424 19.232 115.472 18.8373 115.568 18.464C115.675 18.0907 115.846 17.7653 116.08 17.488C116.315 17.2107 116.619 16.992 116.992 16.832C117.366 16.672 117.819 16.592 118.352 16.592C118.683 16.592 118.982 16.624 119.248 16.688C119.526 16.752 119.755 16.816 119.936 16.88L119.504 18.608C119.206 18.5013 118.934 18.448 118.688 18.448C118.4 18.448 118.176 18.5387 118.016 18.72C117.856 18.8907 117.776 19.1787 117.776 19.584V20.064H120.352L120.624 17.952H122.576V20.064H124.48V21.904H122.576V25.088C122.576 25.536 122.667 25.8613 122.848 26.064C123.04 26.256 123.291 26.352 123.6 26.352C123.728 26.352 123.856 26.336 123.984 26.304C124.123 26.272 124.246 26.2347 124.352 26.192L124.72 27.904C124.507 27.968 124.256 28.032 123.968 28.096C123.68 28.16 123.344 28.192 122.96 28.192C122.47 28.192 122.048 28.1173 121.696 27.968C121.355 27.8187 121.072 27.6107 120.848 27.344C120.635 27.0773 120.475 26.7573 120.368 26.384C120.272 26 120.224 25.5787 120.224 25.12V21.904H117.776V28H115.424Z" fill="#292929"/>
<path d="M9 2H160V0H9V2ZM167 9V35H169V9H167ZM160 42H9V44H160V42ZM2 35V9H0V35H2ZM9 42C5.13401 42 2 38.866 2 35H0C0 39.9706 4.02944 44 9 44V42ZM167 35C167 38.866 163.866 42 160 42V44C164.971 44 169 39.9706 169 35H167ZM160 2C163.866 2 167 5.13401 167 9H169C169 4.02944 164.971 0 160 0V2ZM9 0C4.02944 0 0 4.02944 0 9H2C2 5.13401 5.13401 2 9 2V0Z" fill="#C4C4C4"/>
</svg>
